<svg width="379" height="296" viewBox="0 0 379 296" fill="none" xmlns="http://www.w3.org/2000/svg">
<path d="M186.162 128.675C187.626 130.314 188.728 132.204 189.976 134.007C191.963 136.878 193.554 140.014 194.791 143.336C200.494 158.662 205.123 174.529 209.157 190.372C215.505 215.307 219.984 240.442 222.054 266.084C222.518 271.824 222.664 277.785 223.339 283.52C223.76 287.091 226.288 276.954 227.378 273.53C228.921 268.688 232.983 254.017 232.014 259.007C230.473 266.946 227.95 274.988 225.267 282.595C224.601 284.484 223.899 286.372 222.972 288.145C221.6 290.773 221.335 289.611 220.953 287.683C219.318 279.445 217.966 271.847 215.032 263.864C214.754 263.107 203.688 237.554 202.685 238.565" stroke="#0305F3" stroke-width="12" stroke-linecap="round"/>
<path d="M60.5074 100.041C76.405 107.906 96.8106 109.372 114.051 111.086C169.296 116.578 228.184 113.281 282.264 100.882C302.529 96.2352 324.278 90.5961 349.533 75.0818C371.536 61.5656 388.037 36.5357 351.533 19.0147C333.854 10.5291 299.028 6.65027 266.649 6.65027C200.315 6.65027 130.264 14.2188 67.506 35.5345C41.5035 44.3662 17.4563 55.2783 6 74.1748" stroke="#0305F3" stroke-width="12" stroke-linecap="round"/>
</svg>
