<svg width="564" height="564" viewBox="0 0 564 564" fill="none" xmlns="http://www.w3.org/2000/svg">
<mask id="mask0_1_40" style="mask-type:alpha" maskUnits="userSpaceOnUse" x="0" y="0" width="564" height="564">
<circle cx="282" cy="282" r="282" fill="black"/>
</mask>
<g mask="url(#mask0_1_40)">
<circle cx="282" cy="282" r="282" fill="#01F501"/>
<path fill-rule="evenodd" clip-rule="evenodd" d="M309.462 529.077C447.812 499.851 532.113 344.306 497.753 181.658C486.881 130.189 465.428 84.1763 436.797 46.2466C513.42 96.6597 564 183.423 564 282C564 437.744 437.744 564 282 564C134.038 564 12.6919 450.047 0.933716 305.115C41.3422 457.87 176.172 557.235 309.462 529.077Z" fill="#FF0E02"/>
<path fill-rule="evenodd" clip-rule="evenodd" d="M242.241 441.896C314.133 431.603 361.594 347.694 348.248 254.48C339.445 192.998 306.388 142.825 264.272 118.743C313.657 143.784 352.386 198.716 362.111 266.638C376.553 367.505 321.559 458.825 239.28 470.606C157 482.386 78.5914 410.167 64.1495 309.299C49.7075 208.431 104.701 117.111 186.981 105.331C188.194 105.157 189.407 105.001 190.618 104.864C120.576 117.209 74.7614 199.971 87.9027 291.755C101.249 384.969 170.348 452.189 242.241 441.896Z" fill="#FCFC00"/>
<ellipse cx="288.5" cy="304.5" rx="213.5" ry="198.5" fill="white"/>
<path fill-rule="evenodd" clip-rule="evenodd" d="M255.5 692C425.88 692 564 553.432 564 382.5C564 211.568 425.88 73 255.5 73C199.005 73 146.057 88.2351 100.515 114.834C136.611 98.3233 177.577 89 221 89C366.251 89 484 193.318 484 322C484 450.682 366.251 555 221 555C75.7491 555 -42 450.682 -42 322C-42 312.347 -41.3374 302.831 -40.0503 293.486C-48.4741 321.677 -53 351.558 -53 382.5C-53 553.432 85.1201 692 255.5 692Z" fill="#FF0503"/>
<path fill-rule="evenodd" clip-rule="evenodd" d="M456.415 503.608C521.935 451.969 564 371.897 564 282C564 126.256 437.744 0 282 0C194.501 0 116.309 39.8506 64.5846 102.392C112.576 64.5686 173.153 42 239 42C394.744 42 521 168.256 521 324C521 392.245 496.758 454.828 456.415 503.608Z" fill="#010101"/>
<path fill-rule="evenodd" clip-rule="evenodd" d="M293.5 710C474.373 710 621 571.432 621 400.5C621 229.568 474.373 91 293.5 91C282.589 91 271.802 91.5043 261.165 92.4895C384.331 105.641 480.037 204.275 480.037 324C480.037 452.682 369.474 557 233.087 557C96.7008 557 -13.8625 452.682 -13.8625 324C-13.8625 310.688 -12.6793 297.637 -10.4067 284.935C-25.6241 320.641 -34 359.646 -34 400.5C-34 571.432 112.627 710 293.5 710Z" fill="#FA7A18"/>
<path d="M475 181C517.5 238.5 538 295.5 552 362.5C555.5 348.5 562.5 315 562.5 293C537.5 83 316.5 17.5 186.5 39C335.5 39 432.5 123.5 475 181Z" fill="#FF0503"/>
<circle cx="272.5" cy="288.5" r="167.5" fill="#0305F3"/>
</g>
</svg>
