<svg width="304" height="173" viewBox="0 0 304 173" fill="none" xmlns="http://www.w3.org/2000/svg">
<path d="M302.831 172.25L302.843 172.249C302.983 172.236 303.111 172.158 303.186 172.035C303.276 171.887 303.268 171.709 303.183 171.572L303.183 171.572C303.148 171.516 303.102 171.48 303.084 171.464L303.083 171.464L303.083 171.464C303.058 171.443 303.031 171.424 303.002 171.408H303.002L303.002 171.408M302.831 172.25L302.876 171.623L303.002 171.408M302.831 172.25H302.819H289.5H280H203.5H9C4.44366 172.25 0.75 168.556 0.75 164V9C0.75 4.44365 4.44366 0.75 9 0.75H288.912C293.467 0.75 297.161 4.44298 297.162 8.9989L297.181 155.702C297.181 155.975 297.174 156.248 297.16 156.52C297.112 159.219 297.172 161.438 297.339 163.18C297.508 164.93 297.783 166.175 298.15 166.94C298.844 168.386 300.335 169.814 302.67 171.212M302.831 172.25L302.67 171.212M303.002 171.408L302.671 171.213M303.002 171.408L302.671 171.213M302.671 171.213C302.671 171.213 302.67 171.213 302.67 171.212M302.671 171.213L302.67 171.212" fill="#E1FFC8" stroke="#B5CADD" stroke-width="0.5"/>
<path fill-rule="evenodd" clip-rule="evenodd" d="M288.134 157.887L281.634 164.697L281.578 164.767C281.451 164.961 281.48 165.222 281.66 165.385C281.862 165.568 282.178 165.556 282.366 165.359L288.866 158.549L288.922 158.48C289.049 158.286 289.02 158.024 288.84 157.862C288.638 157.679 288.322 157.69 288.134 157.887ZM284.635 157.886L278.436 164.32L275.862 161.69L275.794 161.632C275.603 161.496 275.333 161.508 275.155 161.673C274.955 161.858 274.947 162.166 275.138 162.361L278.076 165.364L278.147 165.424C278.347 165.563 278.629 165.542 278.803 165.361L285.365 158.551L285.42 158.482C285.549 158.288 285.521 158.027 285.342 157.863C285.14 157.68 284.824 157.69 284.635 157.886Z" fill="#17C700"/>
<path d="M15.4375 25.5111V14.2377H16.8438V25.5111H15.4375ZM19.6937 18.683L19.5297 14.2377H20.9828L20.8187 18.683H19.6937ZM23.4969 25.5111V17.0892H24.8562V18.3705H24.9812C25.3562 17.4642 26.1531 16.9408 27.2547 16.9408C28.3953 16.9408 29.1922 17.5424 29.5828 18.4174H29.7078C30.1609 17.5267 31.1219 16.9408 32.2859 16.9408C34.0047 16.9408 34.9656 17.9252 34.9656 19.6908V25.5111H33.6062V20.0033C33.6062 18.7611 33.0359 18.1439 31.8484 18.1439C30.6766 18.1439 29.9031 19.0267 29.9031 20.097V25.5111H28.5437V19.7924C28.5437 18.7924 27.8562 18.1439 26.7937 18.1439C25.6922 18.1439 24.8562 19.1049 24.8562 20.2924V25.5111H23.4969ZM41.1187 28.3236V17.0892H42.4781V18.433H42.6031C43.1187 17.4955 44.0562 16.9408 45.2281 16.9408C47.3609 16.9408 48.7594 18.6674 48.7594 21.2924V21.308C48.7594 23.9486 47.3687 25.6595 45.2281 25.6595C44.0719 25.6595 43.0641 25.0814 42.6031 24.183H42.4781V28.3236H41.1187ZM44.9156 24.4564C46.4547 24.4564 47.3687 23.2689 47.3687 21.308V21.2924C47.3687 19.3314 46.4547 18.1439 44.9156 18.1439C43.3844 18.1439 42.4469 19.347 42.4469 21.2924V21.308C42.4469 23.2533 43.3844 24.4564 44.9156 24.4564ZM52.7969 25.6595C51.1953 25.6595 49.9844 24.6908 49.9844 23.1595V23.1439C49.9844 21.6439 51.0938 20.7767 53.0547 20.6595L55.4688 20.5111V19.7455C55.4688 18.7064 54.8359 18.1439 53.5781 18.1439C52.5703 18.1439 51.9062 18.5189 51.6875 19.1752L51.6797 19.1986H50.3203L50.3281 19.1517C50.5469 17.8314 51.8281 16.9408 53.625 16.9408C55.6797 16.9408 56.8281 17.9955 56.8281 19.7455V25.5111H55.4688V24.2689H55.3438C54.8125 25.1674 53.9297 25.6595 52.7969 25.6595ZM51.375 23.1283C51.375 23.9799 52.1016 24.4799 53.0781 24.4799C54.4609 24.4799 55.4688 23.5736 55.4688 22.3705V21.6049L53.2188 21.7455C51.9375 21.8236 51.375 22.2767 51.375 23.1127V23.1283ZM61.8031 25.6595C59.9281 25.6595 58.6391 24.7533 58.4828 23.3627H59.8734C60.1 24.0658 60.7719 24.5267 61.85 24.5267C62.9828 24.5267 63.7875 23.9877 63.7875 23.222V23.2064C63.7875 22.6361 63.3578 22.2377 62.3187 21.9877L61.0141 21.6752C59.4359 21.3002 58.725 20.6127 58.725 19.4017V19.3939C58.725 17.9955 60.0687 16.9408 61.8578 16.9408C63.6234 16.9408 64.85 17.8236 65.0375 19.1986H63.7016C63.5219 18.5345 62.8656 18.0736 61.85 18.0736C60.85 18.0736 60.1156 18.5892 60.1156 19.3314V19.347C60.1156 19.9174 60.5375 20.2767 61.5297 20.5189L62.8266 20.8314C64.4125 21.2142 65.1781 21.9017 65.1781 23.1049V23.1205C65.1781 24.6205 63.7172 25.6595 61.8031 25.6595ZM69.6219 25.6595C67.7469 25.6595 66.4578 24.7533 66.3016 23.3627H67.6922C67.9188 24.0658 68.5906 24.5267 69.6688 24.5267C70.8016 24.5267 71.6063 23.9877 71.6063 23.222V23.2064C71.6063 22.6361 71.1766 22.2377 70.1375 21.9877L68.8328 21.6752C67.2547 21.3002 66.5438 20.6127 66.5438 19.4017V19.3939C66.5438 17.9955 67.8875 16.9408 69.6766 16.9408C71.4422 16.9408 72.6688 17.8236 72.8563 19.1986H71.5203C71.3406 18.5345 70.6844 18.0736 69.6688 18.0736C68.6688 18.0736 67.9344 18.5892 67.9344 19.3314V19.347C67.9344 19.9174 68.3563 20.2767 69.3484 20.5189L70.6453 20.8314C72.2313 21.2142 72.9969 21.9017 72.9969 23.1049V23.1205C72.9969 24.6205 71.5359 25.6595 69.6219 25.6595ZM75.425 15.4642C74.9094 15.4642 74.4875 15.0424 74.4875 14.5267C74.4875 14.0111 74.9094 13.5892 75.425 13.5892C75.9406 13.5892 76.3625 14.0111 76.3625 14.5267C76.3625 15.0424 75.9406 15.4642 75.425 15.4642ZM74.7375 25.5111V17.0892H76.0969V25.5111H74.7375ZM81.7203 25.6595C79.3219 25.6595 77.8375 24.0033 77.8375 21.308V21.2924C77.8375 18.5892 79.3219 16.9408 81.7203 16.9408C84.1188 16.9408 85.6031 18.5892 85.6031 21.2924V21.308C85.6031 24.0033 84.1188 25.6595 81.7203 25.6595ZM81.7203 24.4564C83.3141 24.4564 84.2125 23.2924 84.2125 21.308V21.2924C84.2125 19.3002 83.3141 18.1439 81.7203 18.1439C80.1266 18.1439 79.2281 19.3002 79.2281 21.2924V21.308C79.2281 23.2924 80.1266 24.4564 81.7203 24.4564ZM87.3125 25.5111V17.0892H88.6719V18.3549H88.7969C89.2188 17.4642 90.0078 16.9408 91.25 16.9408C93.1406 16.9408 94.1953 18.058 94.1953 20.058V25.5111H92.8359V20.3861C92.8359 18.8705 92.2109 18.1439 90.8672 18.1439C89.5234 18.1439 88.6719 19.0502 88.6719 20.5267V25.5111H87.3125ZM98.5687 25.6595C96.9672 25.6595 95.7562 24.6908 95.7562 23.1595V23.1439C95.7562 21.6439 96.8656 20.7767 98.8266 20.6595L101.241 20.5111V19.7455C101.241 18.7064 100.608 18.1439 99.35 18.1439C98.3422 18.1439 97.6781 18.5189 97.4594 19.1752L97.4516 19.1986H96.0922L96.1 19.1517C96.3187 17.8314 97.6 16.9408 99.3969 16.9408C101.452 16.9408 102.6 17.9955 102.6 19.7455V25.5111H101.241V24.2689H101.116C100.584 25.1674 99.7016 25.6595 98.5687 25.6595ZM97.1469 23.1283C97.1469 23.9799 97.8734 24.4799 98.85 24.4799C100.233 24.4799 101.241 23.5736 101.241 22.3705V21.6049L98.9906 21.7455C97.7094 21.8236 97.1469 22.2767 97.1469 23.1127V23.1283ZM107.677 25.5736C105.942 25.5736 105.216 24.933 105.216 23.3236V18.2142H103.887V17.0892H105.216V14.9095H106.622V17.0892H108.466V18.2142H106.622V22.9799C106.622 23.972 106.966 24.3705 107.841 24.3705C108.083 24.3705 108.216 24.3627 108.466 24.3392V25.4955C108.2 25.5424 107.942 25.5736 107.677 25.5736ZM113.409 25.6595C111.003 25.6595 109.55 23.972 109.55 21.3314V21.3236C109.55 18.722 111.034 16.9408 113.323 16.9408C115.613 16.9408 117.003 18.6439 117.003 21.1595V21.6908H110.941C110.98 23.433 111.941 24.4486 113.441 24.4486C114.581 24.4486 115.284 23.9095 115.511 23.4017L115.542 23.3314H116.902L116.886 23.3939C116.597 24.5345 115.394 25.6595 113.409 25.6595ZM113.316 18.1517C112.066 18.1517 111.113 19.0033 110.964 20.6049H115.62C115.48 18.9408 114.558 18.1517 113.316 18.1517ZM125.125 25.6595C123.523 25.6595 122.312 24.6908 122.312 23.1595V23.1439C122.312 21.6439 123.422 20.7767 125.383 20.6595L127.797 20.5111V19.7455C127.797 18.7064 127.164 18.1439 125.906 18.1439C124.898 18.1439 124.234 18.5189 124.016 19.1752L124.008 19.1986H122.648L122.656 19.1517C122.875 17.8314 124.156 16.9408 125.953 16.9408C128.008 16.9408 129.156 17.9955 129.156 19.7455V25.5111H127.797V24.2689H127.672C127.141 25.1674 126.258 25.6595 125.125 25.6595ZM123.703 23.1283C123.703 23.9799 124.43 24.4799 125.406 24.4799C126.789 24.4799 127.797 23.5736 127.797 22.3705V21.6049L125.547 21.7455C124.266 21.8236 123.703 22.2767 123.703 23.1127V23.1283ZM135.428 25.6595C134.256 25.6595 133.319 25.1049 132.803 24.1674H132.678V25.5111H131.319V13.7455H132.678V18.4174H132.803C133.264 17.5189 134.272 16.9408 135.428 16.9408C137.569 16.9408 138.959 18.6517 138.959 21.2924V21.308C138.959 23.933 137.561 25.6595 135.428 25.6595ZM135.116 24.4564C136.655 24.4564 137.569 23.2689 137.569 21.308V21.2924C137.569 19.3314 136.655 18.1439 135.116 18.1439C133.584 18.1439 132.647 19.347 132.647 21.2924V21.308C132.647 23.2533 133.584 24.4564 135.116 24.4564ZM144.13 25.6595C141.731 25.6595 140.247 24.0033 140.247 21.308V21.2924C140.247 18.5892 141.731 16.9408 144.13 16.9408C146.528 16.9408 148.012 18.5892 148.012 21.2924V21.308C148.012 24.0033 146.528 25.6595 144.13 25.6595ZM144.13 24.4564C145.723 24.4564 146.622 23.2924 146.622 21.308V21.2924C146.622 19.3002 145.723 18.1439 144.13 18.1439C142.536 18.1439 141.637 19.3002 141.637 21.2924V21.308C141.637 23.2924 142.536 24.4564 144.13 24.4564ZM152.542 25.6595C150.628 25.6595 149.644 24.5345 149.644 22.5424V17.0892H151.003V22.2142C151.003 23.7299 151.55 24.4564 152.894 24.4564C154.378 24.4564 155.167 23.5502 155.167 22.0736V17.0892H156.527V25.5111H155.167V24.2533H155.042C154.628 25.1517 153.777 25.6595 152.542 25.6595ZM161.658 25.5736C159.923 25.5736 159.197 24.933 159.197 23.3236V18.2142H157.869V17.0892H159.197V14.9095H160.603V17.0892H162.447V18.2142H160.603V22.9799C160.603 23.972 160.947 24.3705 161.822 24.3705C162.064 24.3705 162.197 24.3627 162.447 24.3392V25.4955C162.181 25.5424 161.923 25.5736 161.658 25.5736ZM168.256 25.5111V13.7455H169.616V18.3549H169.741C170.163 17.4642 170.952 16.9408 172.194 16.9408C174.084 16.9408 175.139 18.058 175.139 20.058V25.5111H173.78V20.3861C173.78 18.8705 173.155 18.1439 171.811 18.1439C170.467 18.1439 169.616 19.0502 169.616 20.5267V25.5111H168.256ZM177.919 15.4642C177.403 15.4642 176.981 15.0424 176.981 14.5267C176.981 14.0111 177.403 13.5892 177.919 13.5892C178.434 13.5892 178.856 14.0111 178.856 14.5267C178.856 15.0424 178.434 15.4642 177.919 15.4642ZM177.231 25.5111V17.0892H178.591V25.5111H177.231ZM180.831 25.5111V13.7455H182.191V20.7689H182.316L185.956 17.0892H187.605L183.933 20.6283L187.847 25.5111H186.136L182.98 21.5502L182.191 22.3158V25.5111H180.831ZM189.759 15.4642C189.244 15.4642 188.822 15.0424 188.822 14.5267C188.822 14.0111 189.244 13.5892 189.759 13.5892C190.275 13.5892 190.697 14.0111 190.697 14.5267C190.697 15.0424 190.275 15.4642 189.759 15.4642ZM189.072 25.5111V17.0892H190.431V25.5111H189.072ZM192.594 25.5111V17.0892H193.953V18.3549H194.078C194.5 17.4642 195.289 16.9408 196.531 16.9408C198.422 16.9408 199.477 18.058 199.477 20.058V25.5111H198.117V20.3861C198.117 18.8705 197.492 18.1439 196.148 18.1439C194.805 18.1439 193.953 19.0502 193.953 20.5267V25.5111H192.594ZM205.006 28.4799C202.975 28.4799 201.678 27.5658 201.467 26.183L201.483 26.1752H202.889L202.897 26.183C203.045 26.8236 203.795 27.2767 205.006 27.2767C206.514 27.2767 207.413 26.5658 207.413 25.3236V23.6205H207.288C206.756 24.5502 205.803 25.0736 204.647 25.0736C202.467 25.0736 201.116 23.3861 201.116 21.0267V21.0111C201.116 18.6517 202.475 16.9408 204.678 16.9408C205.866 16.9408 206.788 17.5267 207.303 18.4799H207.397V17.0892H208.756V25.3939C208.756 27.2767 207.303 28.4799 205.006 28.4799ZM204.944 23.8705C206.506 23.8705 207.444 22.6986 207.444 21.0267V21.0111C207.444 19.3392 206.498 18.1439 204.944 18.1439C203.381 18.1439 202.506 19.3392 202.506 21.0111V21.0267C202.506 22.6986 203.381 23.8705 204.944 23.8705ZM217.3 25.6595C215.698 25.6595 214.488 24.6908 214.488 23.1595V23.1439C214.488 21.6439 215.597 20.7767 217.558 20.6595L219.972 20.5111V19.7455C219.972 18.7064 219.339 18.1439 218.081 18.1439C217.073 18.1439 216.409 18.5189 216.191 19.1752L216.183 19.1986H214.823L214.831 19.1517C215.05 17.8314 216.331 16.9408 218.128 16.9408C220.183 16.9408 221.331 17.9955 221.331 19.7455V25.5111H219.972V24.2689H219.847C219.316 25.1674 218.433 25.6595 217.3 25.6595ZM215.878 23.1283C215.878 23.9799 216.605 24.4799 217.581 24.4799C218.964 24.4799 219.972 23.5736 219.972 22.3705V21.6049L217.722 21.7455C216.441 21.8236 215.878 22.2767 215.878 23.1127V23.1283ZM223.416 25.5111V17.0892H224.775V18.3549H224.9C225.322 17.4642 226.111 16.9408 227.353 16.9408C229.244 16.9408 230.298 18.058 230.298 20.058V25.5111H228.939V20.3861C228.939 18.8705 228.314 18.1439 226.97 18.1439C225.627 18.1439 224.775 19.0502 224.775 20.5267V25.5111H223.416ZM235.469 25.6595C233.336 25.6595 231.938 23.933 231.938 21.308V21.2924C231.938 18.6517 233.328 16.9408 235.469 16.9408C236.625 16.9408 237.633 17.5189 238.094 18.4174H238.219V13.7455H239.578V25.5111H238.219V24.1674H238.094C237.578 25.1049 236.641 25.6595 235.469 25.6595ZM235.781 24.4564C237.312 24.4564 238.25 23.2533 238.25 21.308V21.2924C238.25 19.347 237.312 18.1439 235.781 18.1439C234.242 18.1439 233.328 19.3314 233.328 21.2924V21.308C233.328 23.2689 234.242 24.4564 235.781 24.4564ZM15.3438 47.5111V35.7455H16.7031V42.7689H16.8281L20.4688 39.0892H22.1172L18.4453 42.6283L22.3594 47.5111H20.6484L17.4922 43.5502L16.7031 44.3158V47.5111H15.3438ZM25.6313 47.6595C24.0297 47.6595 22.8188 46.6908 22.8188 45.1595V45.1439C22.8188 43.6439 23.9281 42.7767 25.8891 42.6595L28.3031 42.5111V41.7455C28.3031 40.7064 27.6703 40.1439 26.4125 40.1439C25.4047 40.1439 24.7406 40.5189 24.5219 41.1752L24.5141 41.1986H23.1547L23.1625 41.1517C23.3813 39.8314 24.6625 38.9408 26.4594 38.9408C28.5141 38.9408 29.6625 39.9955 29.6625 41.7455V47.5111H28.3031V46.2689H28.1781C27.6469 47.1674 26.7641 47.6595 25.6313 47.6595ZM24.2094 45.1283C24.2094 45.9799 24.9359 46.4799 25.9125 46.4799C27.2953 46.4799 28.3031 45.5736 28.3031 44.3705V43.6049L26.0531 43.7455C24.7719 43.8236 24.2094 44.2767 24.2094 45.1127V45.1283ZM32.1531 50.4642C31.9734 50.4642 31.7391 50.4486 31.5516 50.4174V49.3002C31.7156 49.3314 31.9266 49.3392 32.1141 49.3392C32.8875 49.3392 33.3563 48.9877 33.6609 48.0189L33.8172 47.5189L30.7 39.0892H32.1531L34.4656 46.0189H34.5906L36.8953 39.0892H38.325L35.0359 48.0267C34.3406 49.9174 33.6453 50.4642 32.1531 50.4642ZM41.7219 47.6595C40.1203 47.6595 38.9094 46.6908 38.9094 45.1595V45.1439C38.9094 43.6439 40.0187 42.7767 41.9797 42.6595L44.3937 42.5111V41.7455C44.3937 40.7064 43.7609 40.1439 42.5031 40.1439C41.4953 40.1439 40.8312 40.5189 40.6125 41.1752L40.6047 41.1986H39.2453L39.2531 41.1517C39.4719 39.8314 40.7531 38.9408 42.55 38.9408C44.6047 38.9408 45.7531 39.9955 45.7531 41.7455V47.5111H44.3937V46.2689H44.2687C43.7375 47.1674 42.8547 47.6595 41.7219 47.6595ZM40.3 45.1283C40.3 45.9799 41.0266 46.4799 42.0031 46.4799C43.3859 46.4799 44.3937 45.5736 44.3937 44.3705V43.6049L42.1437 43.7455C40.8625 43.8236 40.3 44.2767 40.3 45.1127V45.1283ZM47.9156 47.5111V35.7455H49.275V42.7689H49.4L53.0406 39.0892H54.6891L51.0172 42.6283L54.9313 47.5111H53.2203L50.0641 43.5502L49.275 44.3158V47.5111H47.9156ZM56.8438 37.4642C56.3281 37.4642 55.9062 37.0424 55.9062 36.5267C55.9062 36.0111 56.3281 35.5892 56.8438 35.5892C57.3594 35.5892 57.7812 36.0111 57.7812 36.5267C57.7812 37.0424 57.3594 37.4642 56.8438 37.4642ZM56.1562 47.5111V39.0892H57.5156V47.5111H56.1562ZM59.6781 47.5111V39.0892H61.0375V40.3549H61.1625C61.5844 39.4642 62.3734 38.9408 63.6156 38.9408C65.5062 38.9408 66.5609 40.058 66.5609 42.058V47.5111H65.2016V42.3861C65.2016 40.8705 64.5766 40.1439 63.2328 40.1439C61.8891 40.1439 61.0375 41.0502 61.0375 42.5267V47.5111H59.6781ZM72.0906 50.4799C70.0594 50.4799 68.7625 49.5658 68.5516 48.183L68.5672 48.1752H69.9734L69.9813 48.183C70.1297 48.8236 70.8797 49.2767 72.0906 49.2767C73.5984 49.2767 74.4969 48.5658 74.4969 47.3236V45.6205H74.3719C73.8406 46.5502 72.8875 47.0736 71.7313 47.0736C69.5516 47.0736 68.2 45.3861 68.2 43.0267V43.0111C68.2 40.6517 69.5594 38.9408 71.7625 38.9408C72.95 38.9408 73.8719 39.5267 74.3875 40.4799H74.4813V39.0892H75.8406V47.3939C75.8406 49.2767 74.3875 50.4799 72.0906 50.4799ZM72.0281 45.8705C73.5906 45.8705 74.5281 44.6986 74.5281 43.0267V43.0111C74.5281 41.3392 73.5828 40.1439 72.0281 40.1439C70.4656 40.1439 69.5906 41.3392 69.5906 43.0111V43.0267C69.5906 44.6986 70.4656 45.8705 72.0281 45.8705ZM79.0812 47.5892C78.5266 47.5892 78.0656 47.1283 78.0656 46.5736C78.0656 46.0111 78.5266 45.558 79.0812 45.558C79.6437 45.558 80.0969 46.0111 80.0969 46.5736C80.0969 47.1283 79.6437 47.5892 79.0812 47.5892ZM86.5938 47.5111V36.2377H88V47.5111H86.5938ZM90.85 40.683L90.6859 36.2377H92.1391L91.975 40.683H90.85ZM94.6531 47.5111V39.0892H96.0125V40.3705H96.1375C96.5125 39.4642 97.3094 38.9408 98.4109 38.9408C99.5516 38.9408 100.348 39.5424 100.739 40.4174H100.864C101.317 39.5267 102.278 38.9408 103.442 38.9408C105.161 38.9408 106.122 39.9252 106.122 41.6908V47.5111H104.762V42.0033C104.762 40.7611 104.192 40.1439 103.005 40.1439C101.833 40.1439 101.059 41.0267 101.059 42.097V47.5111H99.7V41.7924C99.7 40.7924 99.0125 40.1439 97.95 40.1439C96.8484 40.1439 96.0125 41.1049 96.0125 42.2924V47.5111H94.6531ZM114.588 47.6595C112.986 47.6595 111.775 46.6908 111.775 45.1595V45.1439C111.775 43.6439 112.884 42.7767 114.845 42.6595L117.259 42.5111V41.7455C117.259 40.7064 116.627 40.1439 115.369 40.1439C114.361 40.1439 113.697 40.5189 113.478 41.1752L113.47 41.1986H112.111L112.119 41.1517C112.338 39.8314 113.619 38.9408 115.416 38.9408C117.47 38.9408 118.619 39.9955 118.619 41.7455V47.5111H117.259V46.2689H117.134C116.603 47.1674 115.72 47.6595 114.588 47.6595ZM113.166 45.1283C113.166 45.9799 113.892 46.4799 114.869 46.4799C116.252 46.4799 117.259 45.5736 117.259 44.3705V43.6049L115.009 43.7455C113.728 43.8236 113.166 44.2767 113.166 45.1127V45.1283ZM120.781 47.5111V35.7455H122.141V47.5111H120.781ZM125.975 47.5111L123.616 39.0892H124.975L126.631 45.8236H126.756L128.639 39.0892H129.928L131.811 45.8236H131.936L133.592 39.0892H134.944L132.584 47.5111H131.217L129.334 40.9955H129.209L127.334 47.5111H125.975ZM138.419 47.6595C136.817 47.6595 135.606 46.6908 135.606 45.1595V45.1439C135.606 43.6439 136.716 42.7767 138.677 42.6595L141.091 42.5111V41.7455C141.091 40.7064 140.458 40.1439 139.2 40.1439C138.192 40.1439 137.528 40.5189 137.309 41.1752L137.302 41.1986H135.942L135.95 41.1517C136.169 39.8314 137.45 38.9408 139.247 38.9408C141.302 38.9408 142.45 39.9955 142.45 41.7455V47.5111H141.091V46.2689H140.966C140.434 47.1674 139.552 47.6595 138.419 47.6595ZM136.997 45.1283C136.997 45.9799 137.723 46.4799 138.7 46.4799C140.083 46.4799 141.091 45.5736 141.091 44.3705V43.6049L138.841 43.7455C137.559 43.8236 136.997 44.2767 136.997 45.1127V45.1283ZM144.941 50.4642C144.761 50.4642 144.527 50.4486 144.339 50.4174V49.3002C144.503 49.3314 144.714 49.3392 144.902 49.3392C145.675 49.3392 146.144 48.9877 146.448 48.0189L146.605 47.5189L143.488 39.0892H144.941L147.253 46.0189H147.378L149.683 39.0892H151.113L147.823 48.0267C147.128 49.9174 146.433 50.4642 144.941 50.4642ZM155.166 47.6595C153.291 47.6595 152.002 46.7533 151.845 45.3627H153.236C153.462 46.0658 154.134 46.5267 155.212 46.5267C156.345 46.5267 157.15 45.9877 157.15 45.222V45.2064C157.15 44.6361 156.72 44.2377 155.681 43.9877L154.377 43.6752C152.798 43.3002 152.087 42.6127 152.087 41.4017V41.3939C152.087 39.9955 153.431 38.9408 155.22 38.9408C156.986 38.9408 158.212 39.8236 158.4 41.1986H157.064C156.884 40.5345 156.228 40.0736 155.212 40.0736C154.212 40.0736 153.478 40.5892 153.478 41.3314V41.347C153.478 41.9174 153.9 42.2767 154.892 42.5189L156.189 42.8314C157.775 43.2142 158.541 43.9017 158.541 45.1049V45.1205C158.541 46.6205 157.08 47.6595 155.166 47.6595ZM164.428 47.5111V35.7455H165.788V47.5111H164.428ZM171.458 47.6595C169.059 47.6595 167.575 46.0033 167.575 43.308V43.2924C167.575 40.5892 169.059 38.9408 171.458 38.9408C173.856 38.9408 175.341 40.5892 175.341 43.2924V43.308C175.341 46.0033 173.856 47.6595 171.458 47.6595ZM171.458 46.4564C173.052 46.4564 173.95 45.2924 173.95 43.308V43.2924C173.95 41.3002 173.052 40.1439 171.458 40.1439C169.864 40.1439 168.966 41.3002 168.966 43.2924V43.308C168.966 45.2924 169.864 46.4564 171.458 46.4564ZM180.511 47.6595C178.113 47.6595 176.628 46.0033 176.628 43.308V43.2924C176.628 40.5892 178.113 38.9408 180.511 38.9408C182.909 38.9408 184.394 40.5892 184.394 43.2924V43.308C184.394 46.0033 182.909 47.6595 180.511 47.6595ZM180.511 46.4564C182.105 46.4564 183.003 45.2924 183.003 43.308V43.2924C183.003 41.3002 182.105 40.1439 180.511 40.1439C178.917 40.1439 178.019 41.3002 178.019 43.2924V43.308C178.019 45.2924 178.917 46.4564 180.511 46.4564ZM186.181 47.5111V35.7455H187.541V42.7689H187.666L191.306 39.0892H192.955L189.283 42.6283L193.197 47.5111H191.486L188.33 43.5502L187.541 44.3158V47.5111H186.181ZM195.109 37.4642C194.594 37.4642 194.172 37.0424 194.172 36.5267C194.172 36.0111 194.594 35.5892 195.109 35.5892C195.625 35.5892 196.047 36.0111 196.047 36.5267C196.047 37.0424 195.625 37.4642 195.109 37.4642ZM194.422 47.5111V39.0892H195.781V47.5111H194.422ZM197.944 47.5111V39.0892H199.303V40.3549H199.428C199.85 39.4642 200.639 38.9408 201.881 38.9408C203.772 38.9408 204.827 40.058 204.827 42.058V47.5111H203.467V42.3861C203.467 40.8705 202.842 40.1439 201.498 40.1439C200.155 40.1439 199.303 41.0502 199.303 42.5267V47.5111H197.944ZM210.356 50.4799C208.325 50.4799 207.028 49.5658 206.817 48.183L206.833 48.1752H208.239L208.247 48.183C208.395 48.8236 209.145 49.2767 210.356 49.2767C211.864 49.2767 212.762 48.5658 212.762 47.3236V45.6205H212.637C212.106 46.5502 211.153 47.0736 209.997 47.0736C207.817 47.0736 206.466 45.3861 206.466 43.0267V43.0111C206.466 40.6517 207.825 38.9408 210.028 38.9408C211.216 38.9408 212.137 39.5267 212.653 40.4799H212.747V39.0892H214.106V47.3939C214.106 49.2767 212.653 50.4799 210.356 50.4799ZM210.294 45.8705C211.856 45.8705 212.794 44.6986 212.794 43.0267V43.0111C212.794 41.3392 211.848 40.1439 210.294 40.1439C208.731 40.1439 207.856 41.3392 207.856 43.0111V43.0267C207.856 44.6986 208.731 45.8705 210.294 45.8705ZM220.9 47.5111V40.2142H219.502V39.0892H220.9V38.1517C220.9 36.472 221.744 35.6674 223.345 35.6674C223.673 35.6674 223.97 35.6908 224.252 35.7455V36.8314C224.087 36.8002 223.861 36.7924 223.619 36.7924C222.65 36.7924 222.259 37.2689 222.259 38.1908V39.0892H224.173V40.2142H222.259V47.5111H220.9ZM228.836 47.6595C226.438 47.6595 224.953 46.0033 224.953 43.308V43.2924C224.953 40.5892 226.438 38.9408 228.836 38.9408C231.234 38.9408 232.719 40.5892 232.719 43.2924V43.308C232.719 46.0033 231.234 47.6595 228.836 47.6595ZM228.836 46.4564C230.43 46.4564 231.328 45.2924 231.328 43.308V43.2924C231.328 41.3002 230.43 40.1439 228.836 40.1439C227.242 40.1439 226.344 41.3002 226.344 43.2924V43.308C226.344 45.2924 227.242 46.4564 228.836 46.4564ZM234.428 47.5111V39.0892H235.788V40.3392H235.913C236.233 39.4564 237.022 38.9408 238.163 38.9408C238.42 38.9408 238.709 38.972 238.842 38.9955V40.3158C238.561 40.2689 238.303 40.2377 238.006 40.2377C236.709 40.2377 235.788 41.058 235.788 42.2924V47.5111H234.428ZM18.0859 69.6595C16.1719 69.6595 15.1875 68.5345 15.1875 66.5424V61.0892H16.5469V66.2142C16.5469 67.7299 17.0938 68.4564 18.4375 68.4564C19.9219 68.4564 20.7109 67.5502 20.7109 66.0736V61.0892H22.0703V69.5111H20.7109V68.2533H20.5859C20.1719 69.1517 19.3203 69.6595 18.0859 69.6595ZM24.2094 72.3236V61.0892H25.5688V62.433H25.6938C26.2094 61.4955 27.1469 60.9408 28.3188 60.9408C30.4516 60.9408 31.85 62.6674 31.85 65.2924V65.308C31.85 67.9486 30.4594 69.6595 28.3188 69.6595C27.1625 69.6595 26.1547 69.0814 25.6938 68.183H25.5688V72.3236H24.2094ZM28.0063 68.4564C29.5453 68.4564 30.4594 67.2689 30.4594 65.308V65.2924C30.4594 63.3314 29.5453 62.1439 28.0063 62.1439C26.475 62.1439 25.5375 63.347 25.5375 65.2924V65.308C25.5375 67.2533 26.475 68.4564 28.0063 68.4564ZM36.6844 69.6595C34.5516 69.6595 33.1531 67.933 33.1531 65.308V65.2924C33.1531 62.6517 34.5438 60.9408 36.6844 60.9408C37.8406 60.9408 38.8484 61.5189 39.3094 62.4174H39.4344V57.7455H40.7938V69.5111H39.4344V68.1674H39.3094C38.7938 69.1049 37.8563 69.6595 36.6844 69.6595ZM36.9969 68.4564C38.5281 68.4564 39.4656 67.2533 39.4656 65.308V65.2924C39.4656 63.347 38.5281 62.1439 36.9969 62.1439C35.4578 62.1439 34.5438 63.3314 34.5438 65.2924V65.308C34.5438 67.2689 35.4578 68.4564 36.9969 68.4564ZM45.3156 69.6595C43.7141 69.6595 42.5031 68.6908 42.5031 67.1595V67.1439C42.5031 65.6439 43.6125 64.7767 45.5734 64.6595L47.9875 64.5111V63.7455C47.9875 62.7064 47.3547 62.1439 46.0969 62.1439C45.0891 62.1439 44.425 62.5189 44.2062 63.1752L44.1984 63.1986H42.8391L42.8469 63.1517C43.0656 61.8314 44.3469 60.9408 46.1437 60.9408C48.1984 60.9408 49.3469 61.9955 49.3469 63.7455V69.5111H47.9875V68.2689H47.8625C47.3312 69.1674 46.4484 69.6595 45.3156 69.6595ZM43.8937 67.1283C43.8937 67.9799 44.6203 68.4799 45.5969 68.4799C46.9797 68.4799 47.9875 67.5736 47.9875 66.3705V65.6049L45.7375 65.7455C44.4562 65.8236 43.8937 66.2767 43.8937 67.1127V67.1283ZM54.4234 69.5736C52.6891 69.5736 51.9625 68.933 51.9625 67.3236V62.2142H50.6344V61.0892H51.9625V58.9095H53.3688V61.0892H55.2125V62.2142H53.3688V66.9799C53.3688 67.972 53.7125 68.3705 54.5875 68.3705C54.8297 68.3705 54.9625 68.3627 55.2125 68.3392V69.4955C54.9469 69.5424 54.6891 69.5736 54.4234 69.5736ZM60.1562 69.6595C57.75 69.6595 56.2969 67.972 56.2969 65.3314V65.3236C56.2969 62.722 57.7812 60.9408 60.0703 60.9408C62.3594 60.9408 63.75 62.6439 63.75 65.1595V65.6908H57.6875C57.7266 67.433 58.6875 68.4486 60.1875 68.4486C61.3281 68.4486 62.0312 67.9095 62.2578 67.4017L62.2891 67.3314H63.6484L63.6328 67.3939C63.3438 68.5345 62.1406 69.6595 60.1562 69.6595ZM60.0625 62.1517C58.8125 62.1517 57.8594 63.0033 57.7109 64.6049H62.3672C62.2266 62.9408 61.3047 62.1517 60.0625 62.1517ZM68.35 69.6595C66.475 69.6595 65.1859 68.7533 65.0297 67.3627H66.4203C66.6469 68.0658 67.3187 68.5267 68.3969 68.5267C69.5297 68.5267 70.3344 67.9877 70.3344 67.222V67.2064C70.3344 66.6361 69.9047 66.2377 68.8656 65.9877L67.5609 65.6752C65.9828 65.3002 65.2719 64.6127 65.2719 63.4017V63.3939C65.2719 61.9955 66.6156 60.9408 68.4047 60.9408C70.1703 60.9408 71.3969 61.8236 71.5844 63.1986H70.2484C70.0687 62.5345 69.4125 62.0736 68.3969 62.0736C67.3969 62.0736 66.6625 62.5892 66.6625 63.3314V63.347C66.6625 63.9174 67.0844 64.2767 68.0766 64.5189L69.3734 64.8314C70.9594 65.2142 71.725 65.9017 71.725 67.1049V67.1205C71.725 68.6205 70.2641 69.6595 68.35 69.6595ZM80.9953 69.6595C78.5969 69.6595 77.1125 68.0033 77.1125 65.308V65.2924C77.1125 62.5892 78.5969 60.9408 80.9953 60.9408C83.3937 60.9408 84.8781 62.5892 84.8781 65.2924V65.308C84.8781 68.0033 83.3937 69.6595 80.9953 69.6595ZM80.9953 68.4564C82.5891 68.4564 83.4875 67.2924 83.4875 65.308V65.2924C83.4875 63.3002 82.5891 62.1439 80.9953 62.1439C79.4016 62.1439 78.5031 63.3002 78.5031 65.2924V65.308C78.5031 67.2924 79.4016 68.4564 80.9953 68.4564ZM86.5875 69.5111V61.0892H87.9469V62.3549H88.0719C88.4938 61.4642 89.2828 60.9408 90.525 60.9408C92.4156 60.9408 93.4703 62.058 93.4703 64.058V69.5111H92.1109V64.3861C92.1109 62.8705 91.4859 62.1439 90.1422 62.1439C88.7984 62.1439 87.9469 63.0502 87.9469 64.5267V69.5111H86.5875ZM102.623 69.5736C100.889 69.5736 100.162 68.933 100.162 67.3236V62.2142H98.8344V61.0892H100.162V58.9095H101.569V61.0892H103.412V62.2142H101.569V66.9799C101.569 67.972 101.912 68.3705 102.787 68.3705C103.03 68.3705 103.162 68.3627 103.412 68.3392V69.4955C103.147 69.5424 102.889 69.5736 102.623 69.5736ZM105.044 69.5111V61.0892H106.403V62.3392H106.528C106.848 61.4564 107.637 60.9408 108.778 60.9408C109.036 60.9408 109.325 60.972 109.458 60.9955V62.3158C109.177 62.2689 108.919 62.2377 108.622 62.2377C107.325 62.2377 106.403 63.058 106.403 64.2924V69.5111H105.044ZM113.05 69.6595C111.448 69.6595 110.238 68.6908 110.238 67.1595V67.1439C110.238 65.6439 111.347 64.7767 113.308 64.6595L115.722 64.5111V63.7455C115.722 62.7064 115.089 62.1439 113.831 62.1439C112.823 62.1439 112.159 62.5189 111.941 63.1752L111.933 63.1986H110.573L110.581 63.1517C110.8 61.8314 112.081 60.9408 113.878 60.9408C115.933 60.9408 117.081 61.9955 117.081 63.7455V69.5111H115.722V68.2689H115.597C115.066 69.1674 114.183 69.6595 113.05 69.6595ZM111.628 67.1283C111.628 67.9799 112.355 68.4799 113.331 68.4799C114.714 68.4799 115.722 67.5736 115.722 66.3705V65.6049L113.472 65.7455C112.191 65.8236 111.628 66.2767 111.628 67.1127V67.1283ZM119.884 59.4642C119.369 59.4642 118.947 59.0424 118.947 58.5267C118.947 58.0111 119.369 57.5892 119.884 57.5892C120.4 57.5892 120.822 58.0111 120.822 58.5267C120.822 59.0424 120.4 59.4642 119.884 59.4642ZM119.197 69.5111V61.0892H120.556V69.5111H119.197ZM122.797 69.5111V57.7455H124.156V69.5111H122.797ZM133.911 69.6595C131.552 69.6595 130.044 67.9486 130.044 65.2767V65.2611C130.044 62.6439 131.544 60.9408 133.903 60.9408C135.95 60.9408 137.177 62.1205 137.427 63.6205L137.434 63.6674H136.083L136.075 63.6439C135.864 62.8158 135.114 62.1439 133.903 62.1439C132.387 62.1439 131.434 63.3627 131.434 65.2611V65.2767C131.434 67.2142 132.403 68.4564 133.903 68.4564C135.036 68.4564 135.755 67.9564 136.067 67.0189L136.083 66.972L137.427 66.9642L137.411 67.0502C137.067 68.5736 135.934 69.6595 133.911 69.6595ZM142.48 69.6595C140.081 69.6595 138.597 68.0033 138.597 65.308V65.2924C138.597 62.5892 140.081 60.9408 142.48 60.9408C144.878 60.9408 146.363 62.5892 146.363 65.2924V65.308C146.363 68.0033 144.878 69.6595 142.48 69.6595ZM142.48 68.4564C144.073 68.4564 144.972 67.2924 144.972 65.308V65.2924C144.972 63.3002 144.073 62.1439 142.48 62.1439C140.886 62.1439 139.988 63.3002 139.988 65.2924V65.308C139.988 67.2924 140.886 68.4564 142.48 68.4564ZM148.072 69.5111V61.0892H149.431V62.3549H149.556C149.978 61.4642 150.767 60.9408 152.009 60.9408C153.9 60.9408 154.955 62.058 154.955 64.058V69.5111H153.595V64.3861C153.595 62.8705 152.97 62.1439 151.627 62.1439C150.283 62.1439 149.431 63.0502 149.431 64.5267V69.5111H148.072ZM160.125 69.6595C157.992 69.6595 156.594 67.933 156.594 65.308V65.2924C156.594 62.6517 157.984 60.9408 160.125 60.9408C161.281 60.9408 162.289 61.5189 162.75 62.4174H162.875V57.7455H164.234V69.5111H162.875V68.1674H162.75C162.234 69.1049 161.297 69.6595 160.125 69.6595ZM160.438 68.4564C161.969 68.4564 162.906 67.2533 162.906 65.308V65.2924C162.906 63.347 161.969 62.1439 160.438 62.1439C158.898 62.1439 157.984 63.3314 157.984 65.2924V65.308C157.984 67.2689 158.898 68.4564 160.438 68.4564ZM167.163 59.4642C166.647 59.4642 166.225 59.0424 166.225 58.5267C166.225 58.0111 166.647 57.5892 167.163 57.5892C167.678 57.5892 168.1 58.0111 168.1 58.5267C168.1 59.0424 167.678 59.4642 167.163 59.4642ZM166.475 69.5111V61.0892H167.834V69.5111H166.475ZM172.989 69.5736C171.255 69.5736 170.528 68.933 170.528 67.3236V62.2142H169.2V61.0892H170.528V58.9095H171.934V61.0892H173.778V62.2142H171.934V66.9799C171.934 67.972 172.278 68.3705 173.153 68.3705C173.395 68.3705 173.528 68.3627 173.778 68.3392V69.4955C173.512 69.5424 173.255 69.5736 172.989 69.5736ZM176.128 59.4642C175.613 59.4642 175.191 59.0424 175.191 58.5267C175.191 58.0111 175.613 57.5892 176.128 57.5892C176.644 57.5892 177.066 58.0111 177.066 58.5267C177.066 59.0424 176.644 59.4642 176.128 59.4642ZM175.441 69.5111V61.0892H176.8V69.5111H175.441ZM182.423 69.6595C180.025 69.6595 178.541 68.0033 178.541 65.308V65.2924C178.541 62.5892 180.025 60.9408 182.423 60.9408C184.822 60.9408 186.306 62.5892 186.306 65.2924V65.308C186.306 68.0033 184.822 69.6595 182.423 69.6595ZM182.423 68.4564C184.017 68.4564 184.916 67.2924 184.916 65.308V65.2924C184.916 63.3002 184.017 62.1439 182.423 62.1439C180.83 62.1439 179.931 63.3002 179.931 65.2924V65.308C179.931 67.2924 180.83 68.4564 182.423 68.4564ZM188.016 69.5111V61.0892H189.375V62.3549H189.5C189.922 61.4642 190.711 60.9408 191.953 60.9408C193.844 60.9408 194.898 62.058 194.898 64.058V69.5111H193.539V64.3861C193.539 62.8705 192.914 62.1439 191.57 62.1439C190.227 62.1439 189.375 63.0502 189.375 64.5267V69.5111H188.016ZM199.85 69.6595C197.975 69.6595 196.686 68.7533 196.53 67.3627H197.92C198.147 68.0658 198.819 68.5267 199.897 68.5267C201.03 68.5267 201.834 67.9877 201.834 67.222V67.2064C201.834 66.6361 201.405 66.2377 200.366 65.9877L199.061 65.6752C197.483 65.3002 196.772 64.6127 196.772 63.4017V63.3939C196.772 61.9955 198.116 60.9408 199.905 60.9408C201.67 60.9408 202.897 61.8236 203.084 63.1986H201.748C201.569 62.5345 200.913 62.0736 199.897 62.0736C198.897 62.0736 198.163 62.5892 198.163 63.3314V63.347C198.163 63.9174 198.584 64.2767 199.577 64.5189L200.873 64.8314C202.459 65.2142 203.225 65.9017 203.225 67.1049V67.1205C203.225 68.6205 201.764 69.6595 199.85 69.6595ZM211.347 69.6595C209.745 69.6595 208.534 68.6908 208.534 67.1595V67.1439C208.534 65.6439 209.644 64.7767 211.605 64.6595L214.019 64.5111V63.7455C214.019 62.7064 213.386 62.1439 212.128 62.1439C211.12 62.1439 210.456 62.5189 210.238 63.1752L210.23 63.1986H208.87L208.878 63.1517C209.097 61.8314 210.378 60.9408 212.175 60.9408C214.23 60.9408 215.378 61.9955 215.378 63.7455V69.5111H214.019V68.2689H213.894C213.363 69.1674 212.48 69.6595 211.347 69.6595ZM209.925 67.1283C209.925 67.9799 210.652 68.4799 211.628 68.4799C213.011 68.4799 214.019 67.5736 214.019 66.3705V65.6049L211.769 65.7455C210.488 65.8236 209.925 66.2767 209.925 67.1127V67.1283ZM217.462 69.5111V61.0892H218.822V62.3549H218.947C219.369 61.4642 220.158 60.9408 221.4 60.9408C223.291 60.9408 224.345 62.058 224.345 64.058V69.5111H222.986V64.3861C222.986 62.8705 222.361 62.1439 221.017 62.1439C219.673 62.1439 218.822 63.0502 218.822 64.5267V69.5111H217.462ZM229.516 69.6595C227.383 69.6595 225.984 67.933 225.984 65.308V65.2924C225.984 62.6517 227.375 60.9408 229.516 60.9408C230.672 60.9408 231.68 61.5189 232.141 62.4174H232.266V57.7455H233.625V69.5111H232.266V68.1674H232.141C231.625 69.1049 230.688 69.6595 229.516 69.6595ZM229.828 68.4564C231.359 68.4564 232.297 67.2533 232.297 65.308V65.2924C232.297 63.347 231.359 62.1439 229.828 62.1439C228.289 62.1439 227.375 63.3314 227.375 65.2924V65.308C227.375 67.2689 228.289 68.4564 229.828 68.4564ZM18.7109 91.6595C16.3516 91.6595 14.8438 89.9486 14.8438 87.2767V87.2611C14.8438 84.6439 16.3438 82.9408 18.7031 82.9408C20.75 82.9408 21.9766 84.1205 22.2266 85.6205L22.2344 85.6674H20.8828L20.875 85.6439C20.6641 84.8158 19.9141 84.1439 18.7031 84.1439C17.1875 84.1439 16.2344 85.3627 16.2344 87.2611V87.2767C16.2344 89.2142 17.2031 90.4564 18.7031 90.4564C19.8359 90.4564 20.5547 89.9564 20.8672 89.0189L20.8828 88.972L22.2266 88.9642L22.2109 89.0502C21.8672 90.5736 20.7344 91.6595 18.7109 91.6595ZM27.2797 91.6595C24.8813 91.6595 23.3969 90.0033 23.3969 87.308V87.2924C23.3969 84.5892 24.8813 82.9408 27.2797 82.9408C29.6781 82.9408 31.1625 84.5892 31.1625 87.2924V87.308C31.1625 90.0033 29.6781 91.6595 27.2797 91.6595ZM27.2797 90.4564C28.8734 90.4564 29.7719 89.2924 29.7719 87.308V87.2924C29.7719 85.3002 28.8734 84.1439 27.2797 84.1439C25.6859 84.1439 24.7875 85.3002 24.7875 87.2924V87.308C24.7875 89.2924 25.6859 90.4564 27.2797 90.4564ZM32.8719 91.5111V83.0892H34.2313V84.3705H34.3563C34.7313 83.4642 35.5281 82.9408 36.6297 82.9408C37.7703 82.9408 38.5672 83.5424 38.9578 84.4174H39.0828C39.5359 83.5267 40.4969 82.9408 41.6609 82.9408C43.3797 82.9408 44.3406 83.9252 44.3406 85.6908V91.5111H42.9813V86.0033C42.9813 84.7611 42.4109 84.1439 41.2234 84.1439C40.0516 84.1439 39.2781 85.0267 39.2781 86.097V91.5111H37.9188V85.7924C37.9188 84.7924 37.2313 84.1439 36.1688 84.1439C35.0672 84.1439 34.2313 85.1049 34.2313 86.2924V91.5111H32.8719ZM46.3937 91.5111V83.0892H47.7531V84.3705H47.8781C48.2531 83.4642 49.05 82.9408 50.1516 82.9408C51.2922 82.9408 52.0891 83.5424 52.4797 84.4174H52.6047C53.0578 83.5267 54.0187 82.9408 55.1828 82.9408C56.9016 82.9408 57.8625 83.9252 57.8625 85.6908V91.5111H56.5031V86.0033C56.5031 84.7611 55.9328 84.1439 54.7453 84.1439C53.5734 84.1439 52.8 85.0267 52.8 86.097V91.5111H51.4406V85.7924C51.4406 84.7924 50.7531 84.1439 49.6906 84.1439C48.5891 84.1439 47.7531 85.1049 47.7531 86.2924V91.5111H46.3937ZM62.7359 91.6595C60.8219 91.6595 59.8375 90.5345 59.8375 88.5424V83.0892H61.1969V88.2142C61.1969 89.7299 61.7438 90.4564 63.0875 90.4564C64.5719 90.4564 65.3609 89.5502 65.3609 88.0736V83.0892H66.7203V91.5111H65.3609V90.2533H65.2359C64.8219 91.1517 63.9703 91.6595 62.7359 91.6595ZM68.8594 91.5111V83.0892H70.2188V84.3549H70.3438C70.7656 83.4642 71.5547 82.9408 72.7969 82.9408C74.6875 82.9408 75.7422 84.058 75.7422 86.058V91.5111H74.3828V86.3861C74.3828 84.8705 73.7578 84.1439 72.4141 84.1439C71.0703 84.1439 70.2188 85.0502 70.2188 86.5267V91.5111H68.8594ZM78.5219 81.4642C78.0062 81.4642 77.5844 81.0424 77.5844 80.5267C77.5844 80.0111 78.0062 79.5892 78.5219 79.5892C79.0375 79.5892 79.4594 80.0111 79.4594 80.5267C79.4594 81.0424 79.0375 81.4642 78.5219 81.4642ZM77.8344 91.5111V83.0892H79.1937V91.5111H77.8344ZM84.3484 91.5736C82.6141 91.5736 81.8875 90.933 81.8875 89.3236V84.2142H80.5594V83.0892H81.8875V80.9095H83.2937V83.0892H85.1375V84.2142H83.2937V88.9799C83.2937 89.972 83.6375 90.3705 84.5125 90.3705C84.7547 90.3705 84.8875 90.3627 85.1375 90.3392V91.4955C84.8719 91.5424 84.6141 91.5736 84.3484 91.5736ZM87.4875 94.4642C87.3078 94.4642 87.0734 94.4486 86.8859 94.4174V93.3002C87.05 93.3314 87.2609 93.3392 87.4484 93.3392C88.2219 93.3392 88.6906 92.9877 88.9953 92.0189L89.1516 91.5189L86.0344 83.0892H87.4875L89.8 90.0189H89.925L92.2297 83.0892H93.6594L90.3703 92.0267C89.675 93.9174 88.9797 94.4642 87.4875 94.4642ZM102.594 91.6595C100.188 91.6595 98.7344 89.972 98.7344 87.3314V87.3236C98.7344 84.722 100.219 82.9408 102.508 82.9408C104.797 82.9408 106.188 84.6439 106.188 87.1595V87.6908H100.125C100.164 89.433 101.125 90.4486 102.625 90.4486C103.766 90.4486 104.469 89.9095 104.695 89.4017L104.727 89.3314H106.086L106.07 89.3939C105.781 90.5345 104.578 91.6595 102.594 91.6595ZM102.5 84.1517C101.25 84.1517 100.297 85.0033 100.148 86.6049H104.805C104.664 84.9408 103.742 84.1517 102.5 84.1517ZM110.123 91.5111L107.006 83.0892H108.444L110.748 90.0267H110.873L113.178 83.0892H114.616L111.498 91.5111H110.123ZM119.137 91.6595C116.731 91.6595 115.278 89.972 115.278 87.3314V87.3236C115.278 84.722 116.762 82.9408 119.052 82.9408C121.341 82.9408 122.731 84.6439 122.731 87.1595V87.6908H116.669C116.708 89.433 117.669 90.4486 119.169 90.4486C120.309 90.4486 121.012 89.9095 121.239 89.4017L121.27 89.3314H122.63L122.614 89.3939C122.325 90.5345 121.122 91.6595 119.137 91.6595ZM119.044 84.1517C117.794 84.1517 116.841 85.0033 116.692 86.6049H121.348C121.208 84.9408 120.286 84.1517 119.044 84.1517ZM124.441 91.5111V83.0892H125.8V84.3549H125.925C126.347 83.4642 127.136 82.9408 128.378 82.9408C130.269 82.9408 131.323 84.058 131.323 86.058V91.5111H129.964V86.3861C129.964 84.8705 129.339 84.1439 127.995 84.1439C126.652 84.1439 125.8 85.0502 125.8 86.5267V91.5111H124.441ZM136.377 91.5736C134.642 91.5736 133.916 90.933 133.916 89.3236V84.2142H132.588V83.0892H133.916V80.9095H135.322V83.0892H137.166V84.2142H135.322V88.9799C135.322 89.972 135.666 90.3705 136.541 90.3705C136.783 90.3705 136.916 90.3627 137.166 90.3392V91.4955C136.9 91.5424 136.642 91.5736 136.377 91.5736ZM141.531 91.6595C139.656 91.6595 138.367 90.7533 138.211 89.3627H139.602C139.828 90.0658 140.5 90.5267 141.578 90.5267C142.711 90.5267 143.516 89.9877 143.516 89.222V89.2064C143.516 88.6361 143.086 88.2377 142.047 87.9877L140.742 87.6752C139.164 87.3002 138.453 86.6127 138.453 85.4017V85.3939C138.453 83.9955 139.797 82.9408 141.586 82.9408C143.352 82.9408 144.578 83.8236 144.766 85.1986H143.43C143.25 84.5345 142.594 84.0736 141.578 84.0736C140.578 84.0736 139.844 84.5892 139.844 85.3314V85.347C139.844 85.9174 140.266 86.2767 141.258 86.5189L142.555 86.8314C144.141 87.2142 144.906 87.9017 144.906 89.1049V89.1205C144.906 90.6205 143.445 91.6595 141.531 91.6595ZM150.716 91.5111V83.0892H152.075V84.3392H152.2C152.52 83.4564 153.309 82.9408 154.45 82.9408C154.708 82.9408 154.997 82.972 155.13 82.9955V84.3158C154.848 84.2689 154.591 84.2377 154.294 84.2377C152.997 84.2377 152.075 85.058 152.075 86.2924V91.5111H150.716ZM159.613 91.6595C157.206 91.6595 155.753 89.972 155.753 87.3314V87.3236C155.753 84.722 157.238 82.9408 159.527 82.9408C161.816 82.9408 163.206 84.6439 163.206 87.1595V87.6908H157.144C157.183 89.433 158.144 90.4486 159.644 90.4486C160.784 90.4486 161.488 89.9095 161.714 89.4017L161.745 89.3314H163.105L163.089 89.3939C162.8 90.5345 161.597 91.6595 159.613 91.6595ZM159.519 84.1517C158.269 84.1517 157.316 85.0033 157.167 86.6049H161.823C161.683 84.9408 160.761 84.1517 159.519 84.1517ZM164.994 91.5111V79.7455H166.353V91.5111H164.994ZM170.875 91.6595C169.273 91.6595 168.062 90.6908 168.062 89.1595V89.1439C168.062 87.6439 169.172 86.7767 171.133 86.6595L173.547 86.5111V85.7455C173.547 84.7064 172.914 84.1439 171.656 84.1439C170.648 84.1439 169.984 84.5189 169.766 85.1752L169.758 85.1986H168.398L168.406 85.1517C168.625 83.8314 169.906 82.9408 171.703 82.9408C173.758 82.9408 174.906 83.9955 174.906 85.7455V91.5111H173.547V90.2689H173.422C172.891 91.1674 172.008 91.6595 170.875 91.6595ZM169.453 89.1283C169.453 89.9799 170.18 90.4799 171.156 90.4799C172.539 90.4799 173.547 89.5736 173.547 88.3705V87.6049L171.297 87.7455C170.016 87.8236 169.453 88.2767 169.453 89.1127V89.1283ZM179.983 91.5736C178.248 91.5736 177.522 90.933 177.522 89.3236V84.2142H176.194V83.0892H177.522V80.9095H178.928V83.0892H180.772V84.2142H178.928V88.9799C178.928 89.972 179.272 90.3705 180.147 90.3705C180.389 90.3705 180.522 90.3627 180.772 90.3392V91.4955C180.506 91.5424 180.248 91.5736 179.983 91.5736ZM185.716 91.6595C183.309 91.6595 181.856 89.972 181.856 87.3314V87.3236C181.856 84.722 183.341 82.9408 185.63 82.9408C187.919 82.9408 189.309 84.6439 189.309 87.1595V87.6908H183.247C183.286 89.433 184.247 90.4486 185.747 90.4486C186.887 90.4486 187.591 89.9095 187.817 89.4017L187.848 89.3314H189.208L189.192 89.3939C188.903 90.5345 187.7 91.6595 185.716 91.6595ZM185.622 84.1517C184.372 84.1517 183.419 85.0033 183.27 86.6049H187.927C187.786 84.9408 186.864 84.1517 185.622 84.1517ZM194.128 91.6595C191.995 91.6595 190.597 89.933 190.597 87.308V87.2924C190.597 84.6517 191.988 82.9408 194.128 82.9408C195.284 82.9408 196.292 83.5189 196.753 84.4174H196.878V79.7455H198.238V91.5111H196.878V90.1674H196.753C196.238 91.1049 195.3 91.6595 194.128 91.6595ZM194.441 90.4564C195.972 90.4564 196.909 89.2533 196.909 87.308V87.2924C196.909 85.347 195.972 84.1439 194.441 84.1439C192.902 84.1439 191.988 85.3314 191.988 87.2924V87.308C191.988 89.2689 192.902 90.4564 194.441 90.4564ZM207.539 91.5736C205.805 91.5736 205.078 90.933 205.078 89.3236V84.2142H203.75V83.0892H205.078V80.9095H206.484V83.0892H208.328V84.2142H206.484V88.9799C206.484 89.972 206.828 90.3705 207.703 90.3705C207.945 90.3705 208.078 90.3627 208.328 90.3392V91.4955C208.062 91.5424 207.805 91.5736 207.539 91.5736ZM213.295 91.6595C210.897 91.6595 209.413 90.0033 209.413 87.308V87.2924C209.413 84.5892 210.897 82.9408 213.295 82.9408C215.694 82.9408 217.178 84.5892 217.178 87.2924V87.308C217.178 90.0033 215.694 91.6595 213.295 91.6595ZM213.295 90.4564C214.889 90.4564 215.788 89.2924 215.788 87.308V87.2924C215.788 85.3002 214.889 84.1439 213.295 84.1439C211.702 84.1439 210.803 85.3002 210.803 87.2924V87.308C210.803 89.2924 211.702 90.4564 213.295 90.4564ZM226.448 91.6595C224.05 91.6595 222.566 90.0033 222.566 87.308V87.2924C222.566 84.5892 224.05 82.9408 226.448 82.9408C228.847 82.9408 230.331 84.5892 230.331 87.2924V87.308C230.331 90.0033 228.847 91.6595 226.448 91.6595ZM226.448 90.4564C228.042 90.4564 228.941 89.2924 228.941 87.308V87.2924C228.941 85.3002 228.042 84.1439 226.448 84.1439C224.855 84.1439 223.956 85.3002 223.956 87.2924V87.308C223.956 89.2924 224.855 90.4564 226.448 90.4564ZM234.861 91.6595C232.947 91.6595 231.962 90.5345 231.962 88.5424V83.0892H233.322V88.2142C233.322 89.7299 233.869 90.4564 235.212 90.4564C236.697 90.4564 237.486 89.5502 237.486 88.0736V83.0892H238.845V91.5111H237.486V90.2533H237.361C236.947 91.1517 236.095 91.6595 234.861 91.6595ZM243.977 91.5736C242.242 91.5736 241.516 90.933 241.516 89.3236V84.2142H240.188V83.0892H241.516V80.9095H242.922V83.0892H244.766V84.2142H242.922V88.9799C242.922 89.972 243.266 90.3705 244.141 90.3705C244.383 90.3705 244.516 90.3627 244.766 90.3392V91.4955C244.5 91.5424 244.242 91.5736 243.977 91.5736ZM249.381 91.6595C247.248 91.6595 245.85 89.933 245.85 87.308V87.2924C245.85 84.6517 247.241 82.9408 249.381 82.9408C250.538 82.9408 251.545 83.5189 252.006 84.4174H252.131V79.7455H253.491V91.5111H252.131V90.1674H252.006C251.491 91.1049 250.553 91.6595 249.381 91.6595ZM249.694 90.4564C251.225 90.4564 252.163 89.2533 252.163 87.308V87.2924C252.163 85.347 251.225 84.1439 249.694 84.1439C248.155 84.1439 247.241 85.3314 247.241 87.2924V87.308C247.241 89.2689 248.155 90.4564 249.694 90.4564ZM259.161 91.6595C256.762 91.6595 255.278 90.0033 255.278 87.308V87.2924C255.278 84.5892 256.762 82.9408 259.161 82.9408C261.559 82.9408 263.044 84.5892 263.044 87.2924V87.308C263.044 90.0033 261.559 91.6595 259.161 91.6595ZM259.161 90.4564C260.755 90.4564 261.653 89.2924 261.653 87.308V87.2924C261.653 85.3002 260.755 84.1439 259.161 84.1439C257.567 84.1439 256.669 85.3002 256.669 87.2924V87.308C256.669 89.2924 257.567 90.4564 259.161 90.4564ZM268.214 91.6595C265.816 91.6595 264.331 90.0033 264.331 87.308V87.2924C264.331 84.5892 265.816 82.9408 268.214 82.9408C270.613 82.9408 272.097 84.5892 272.097 87.2924V87.308C272.097 90.0033 270.613 91.6595 268.214 91.6595ZM268.214 90.4564C269.808 90.4564 270.706 89.2924 270.706 87.308V87.2924C270.706 85.3002 269.808 84.1439 268.214 84.1439C266.62 84.1439 265.722 85.3002 265.722 87.2924V87.308C265.722 89.2924 266.62 90.4564 268.214 90.4564ZM273.806 91.5111V83.0892H275.166V84.3392H275.291C275.611 83.4564 276.4 82.9408 277.541 82.9408C277.798 82.9408 278.087 82.972 278.22 82.9955V84.3158C277.939 84.2689 277.681 84.2377 277.384 84.2377C276.087 84.2377 275.166 85.058 275.166 86.2924V91.5111H273.806ZM17.5781 113.66C15.9766 113.66 14.7656 112.691 14.7656 111.16V111.144C14.7656 109.644 15.875 108.777 17.8359 108.66L20.25 108.511V107.745C20.25 106.706 19.6172 106.144 18.3594 106.144C17.3516 106.144 16.6875 106.519 16.4688 107.175L16.4609 107.199H15.1016L15.1094 107.152C15.3281 105.831 16.6094 104.941 18.4062 104.941C20.4609 104.941 21.6094 105.995 21.6094 107.745V113.511H20.25V112.269H20.125C19.5938 113.167 18.7109 113.66 17.5781 113.66ZM16.1562 111.128C16.1562 111.98 16.8828 112.48 17.8594 112.48C19.2422 112.48 20.25 111.574 20.25 110.37V109.605L18 109.745C16.7188 109.824 16.1562 110.277 16.1562 111.113V111.128ZM26.8031 113.66C24.6703 113.66 23.2719 111.933 23.2719 109.308V109.292C23.2719 106.652 24.6625 104.941 26.8031 104.941C27.9594 104.941 28.9672 105.519 29.4281 106.417H29.5531V101.745H30.9125V113.511H29.5531V112.167H29.4281C28.9125 113.105 27.975 113.66 26.8031 113.66ZM27.1156 112.456C28.6469 112.456 29.5844 111.253 29.5844 109.308V109.292C29.5844 107.347 28.6469 106.144 27.1156 106.144C25.5766 106.144 24.6625 107.331 24.6625 109.292V109.308C24.6625 111.269 25.5766 112.456 27.1156 112.456ZM35.5047 113.511L32.3875 105.089H33.825L36.1297 112.027H36.2547L38.5594 105.089H39.9969L36.8797 113.511H35.5047ZM44.5187 113.66C42.1125 113.66 40.6594 111.972 40.6594 109.331V109.324C40.6594 106.722 42.1437 104.941 44.4328 104.941C46.7219 104.941 48.1125 106.644 48.1125 109.16V109.691H42.05C42.0891 111.433 43.05 112.449 44.55 112.449C45.6906 112.449 46.3937 111.91 46.6203 111.402L46.6516 111.331H48.0109L47.9953 111.394C47.7062 112.535 46.5031 113.66 44.5187 113.66ZM44.425 106.152C43.175 106.152 42.2219 107.003 42.0734 108.605H46.7297C46.5891 106.941 45.6672 106.152 44.425 106.152ZM49.8219 113.511V105.089H51.1813V106.355H51.3063C51.7281 105.464 52.5172 104.941 53.7594 104.941C55.65 104.941 56.7047 106.058 56.7047 108.058V113.511H55.3453V108.386C55.3453 106.87 54.7203 106.144 53.3766 106.144C52.0328 106.144 51.1813 107.05 51.1813 108.527V113.511H49.8219ZM61.7578 113.574C60.0234 113.574 59.2969 112.933 59.2969 111.324V106.214H57.9688V105.089H59.2969V102.91H60.7031V105.089H62.5469V106.214H60.7031V110.98C60.7031 111.972 61.0469 112.37 61.9219 112.37C62.1641 112.37 62.2969 112.363 62.5469 112.339V113.495C62.2812 113.542 62.0234 113.574 61.7578 113.574ZM66.9984 113.66C65.0844 113.66 64.1 112.535 64.1 110.542V105.089H65.4594V110.214C65.4594 111.73 66.0062 112.456 67.35 112.456C68.8344 112.456 69.6234 111.55 69.6234 110.074V105.089H70.9828V113.511H69.6234V112.253H69.4984C69.0844 113.152 68.2328 113.66 66.9984 113.66ZM73.1219 113.511V105.089H74.4813V106.339H74.6063C74.9266 105.456 75.7156 104.941 76.8563 104.941C77.1141 104.941 77.4031 104.972 77.5359 104.995V106.316C77.2547 106.269 76.9969 106.238 76.7 106.238C75.4031 106.238 74.4813 107.058 74.4813 108.292V113.511H73.1219ZM82.0187 113.66C79.6125 113.66 78.1594 111.972 78.1594 109.331V109.324C78.1594 106.722 79.6437 104.941 81.9328 104.941C84.2219 104.941 85.6125 106.644 85.6125 109.16V109.691H79.55C79.5891 111.433 80.55 112.449 82.05 112.449C83.1906 112.449 83.8937 111.91 84.1203 111.402L84.1516 111.331H85.5109L85.4953 111.394C85.2062 112.535 84.0031 113.66 82.0187 113.66ZM81.925 106.152C80.675 106.152 79.7219 107.003 79.5734 108.605H84.2297C84.0891 106.941 83.1672 106.152 81.925 106.152ZM90.2125 113.66C88.3375 113.66 87.0484 112.753 86.8922 111.363H88.2828C88.5094 112.066 89.1813 112.527 90.2594 112.527C91.3922 112.527 92.1969 111.988 92.1969 111.222V111.206C92.1969 110.636 91.7672 110.238 90.7281 109.988L89.4234 109.675C87.8453 109.3 87.1344 108.613 87.1344 107.402V107.394C87.1344 105.995 88.4781 104.941 90.2672 104.941C92.0328 104.941 93.2594 105.824 93.4469 107.199H92.1109C91.9313 106.535 91.275 106.074 90.2594 106.074C89.2594 106.074 88.525 106.589 88.525 107.331V107.347C88.525 107.917 88.9469 108.277 89.9391 108.519L91.2359 108.831C92.8219 109.214 93.5875 109.902 93.5875 111.105V111.12C93.5875 112.62 92.1266 113.66 90.2125 113.66ZM96.4062 113.589C95.8516 113.589 95.3906 113.128 95.3906 112.574C95.3906 112.011 95.8516 111.558 96.4062 111.558C96.9688 111.558 97.4219 112.011 97.4219 112.574C97.4219 113.128 96.9688 113.589 96.4062 113.589ZM103.919 113.511V102.238H105.325V107.714H105.45L110.387 102.238H112.153L107.645 107.105L112.567 113.511H110.747L106.677 108.081L105.325 109.574V113.511H103.919ZM116.706 113.66C114.3 113.66 112.847 111.972 112.847 109.331V109.324C112.847 106.722 114.331 104.941 116.62 104.941C118.909 104.941 120.3 106.644 120.3 109.16V109.691H114.238C114.277 111.433 115.238 112.449 116.738 112.449C117.878 112.449 118.581 111.91 118.808 111.402L118.839 111.331H120.198L120.183 111.394C119.894 112.535 118.691 113.66 116.706 113.66ZM116.613 106.152C115.363 106.152 114.409 107.003 114.261 108.605H118.917C118.777 106.941 117.855 106.152 116.613 106.152ZM125.447 113.66C123.041 113.66 121.588 111.972 121.588 109.331V109.324C121.588 106.722 123.072 104.941 125.361 104.941C127.65 104.941 129.041 106.644 129.041 109.16V109.691H122.978C123.017 111.433 123.978 112.449 125.478 112.449C126.619 112.449 127.322 111.91 127.548 111.402L127.58 111.331H128.939L128.923 111.394C128.634 112.535 127.431 113.66 125.447 113.66ZM125.353 106.152C124.103 106.152 123.15 107.003 123.002 108.605H127.658C127.517 106.941 126.595 106.152 125.353 106.152ZM130.75 116.324V105.089H132.109V106.433H132.234C132.75 105.495 133.688 104.941 134.859 104.941C136.992 104.941 138.391 106.667 138.391 109.292V109.308C138.391 111.949 137 113.66 134.859 113.66C133.703 113.66 132.695 113.081 132.234 112.183H132.109V116.324H130.75ZM134.547 112.456C136.086 112.456 137 111.269 137 109.308V109.292C137 107.331 136.086 106.144 134.547 106.144C133.016 106.144 132.078 107.347 132.078 109.292V109.308C132.078 111.253 133.016 112.456 134.547 112.456ZM140.834 103.464C140.319 103.464 139.897 103.042 139.897 102.527C139.897 102.011 140.319 101.589 140.834 101.589C141.35 101.589 141.772 102.011 141.772 102.527C141.772 103.042 141.35 103.464 140.834 103.464ZM140.147 113.511V105.089H141.506V113.511H140.147ZM143.669 113.511V105.089H145.028V106.355H145.153C145.575 105.464 146.364 104.941 147.606 104.941C149.497 104.941 150.552 106.058 150.552 108.058V113.511H149.192V108.386C149.192 106.87 148.567 106.144 147.223 106.144C145.88 106.144 145.028 107.05 145.028 108.527V113.511H143.669ZM156.081 116.48C154.05 116.48 152.753 115.566 152.542 114.183L152.558 114.175H153.964L153.972 114.183C154.12 114.824 154.87 115.277 156.081 115.277C157.589 115.277 158.488 114.566 158.488 113.324V111.62H158.363C157.831 112.55 156.878 113.074 155.722 113.074C153.542 113.074 152.191 111.386 152.191 109.027V109.011C152.191 106.652 153.55 104.941 155.753 104.941C156.941 104.941 157.863 105.527 158.378 106.48H158.472V105.089H159.831V113.394C159.831 115.277 158.378 116.48 156.081 116.48ZM156.019 111.87C157.581 111.87 158.519 110.699 158.519 109.027V109.011C158.519 107.339 157.573 106.144 156.019 106.144C154.456 106.144 153.581 107.339 153.581 109.011V109.027C153.581 110.699 154.456 111.87 156.019 111.87ZM168.375 113.66C166.773 113.66 165.562 112.691 165.562 111.16V111.144C165.562 109.644 166.672 108.777 168.633 108.66L171.047 108.511V107.745C171.047 106.706 170.414 106.144 169.156 106.144C168.148 106.144 167.484 106.519 167.266 107.175L167.258 107.199H165.898L165.906 107.152C166.125 105.831 167.406 104.941 169.203 104.941C171.258 104.941 172.406 105.995 172.406 107.745V113.511H171.047V112.269H170.922C170.391 113.167 169.508 113.66 168.375 113.66ZM166.953 111.128C166.953 111.98 167.68 112.48 168.656 112.48C170.039 112.48 171.047 111.574 171.047 110.37V109.605L168.797 109.745C167.516 109.824 166.953 110.277 166.953 111.113V111.128ZM174.491 113.511V105.089H175.85V106.355H175.975C176.397 105.464 177.186 104.941 178.428 104.941C180.319 104.941 181.373 106.058 181.373 108.058V113.511H180.014V108.386C180.014 106.87 179.389 106.144 178.045 106.144C176.702 106.144 175.85 107.05 175.85 108.527V113.511H174.491ZM190.972 113.66C188.566 113.66 187.113 111.972 187.113 109.331V109.324C187.113 106.722 188.597 104.941 190.886 104.941C193.175 104.941 194.566 106.644 194.566 109.16V109.691H188.503C188.542 111.433 189.503 112.449 191.003 112.449C192.144 112.449 192.847 111.91 193.073 111.402L193.105 111.331H194.464L194.448 111.394C194.159 112.535 192.956 113.66 190.972 113.66ZM190.878 106.152C189.628 106.152 188.675 107.003 188.527 108.605H193.183C193.042 106.941 192.12 106.152 190.878 106.152ZM196.837 116.464C196.658 116.464 196.423 116.449 196.236 116.417V115.3C196.4 115.331 196.611 115.339 196.798 115.339C197.572 115.339 198.041 114.988 198.345 114.019L198.502 113.519L195.384 105.089H196.837L199.15 112.019H199.275L201.58 105.089H203.009L199.72 114.027C199.025 115.917 198.33 116.464 196.837 116.464ZM207.531 113.66C205.125 113.66 203.672 111.972 203.672 109.331V109.324C203.672 106.722 205.156 104.941 207.445 104.941C209.734 104.941 211.125 106.644 211.125 109.16V109.691H205.062C205.102 111.433 206.062 112.449 207.562 112.449C208.703 112.449 209.406 111.91 209.633 111.402L209.664 111.331H211.023L211.008 111.394C210.719 112.535 209.516 113.66 207.531 113.66ZM207.438 106.152C206.188 106.152 205.234 107.003 205.086 108.605H209.742C209.602 106.941 208.68 106.152 207.438 106.152ZM220.395 113.66C217.997 113.66 216.512 112.003 216.512 109.308V109.292C216.512 106.589 217.997 104.941 220.395 104.941C222.794 104.941 224.278 106.589 224.278 109.292V109.308C224.278 112.003 222.794 113.66 220.395 113.66ZM220.395 112.456C221.989 112.456 222.887 111.292 222.887 109.308V109.292C222.887 107.3 221.989 106.144 220.395 106.144C218.802 106.144 217.903 107.3 217.903 109.292V109.308C217.903 111.292 218.802 112.456 220.395 112.456ZM225.988 113.511V105.089H227.347V106.355H227.472C227.894 105.464 228.683 104.941 229.925 104.941C231.816 104.941 232.87 106.058 232.87 108.058V113.511H231.511V108.386C231.511 106.87 230.886 106.144 229.542 106.144C228.198 106.144 227.347 107.05 227.347 108.527V113.511H225.988ZM242.5 116.48C240.469 116.48 239.172 115.566 238.961 114.183L238.977 114.175H240.383L240.391 114.183C240.539 114.824 241.289 115.277 242.5 115.277C244.008 115.277 244.906 114.566 244.906 113.324V111.62H244.781C244.25 112.55 243.297 113.074 242.141 113.074C239.961 113.074 238.609 111.386 238.609 109.027V109.011C238.609 106.652 239.969 104.941 242.172 104.941C243.359 104.941 244.281 105.527 244.797 106.48H244.891V105.089H246.25V113.394C246.25 115.277 244.797 116.48 242.5 116.48ZM242.438 111.87C244 111.87 244.938 110.699 244.938 109.027V109.011C244.938 107.339 243.992 106.144 242.438 106.144C240.875 106.144 240 107.339 240 109.011V109.027C240 110.699 240.875 111.87 242.438 111.87ZM251.819 113.66C249.413 113.66 247.959 111.972 247.959 109.331V109.324C247.959 106.722 249.444 104.941 251.733 104.941C254.022 104.941 255.413 106.644 255.413 109.16V109.691H249.35C249.389 111.433 250.35 112.449 251.85 112.449C252.991 112.449 253.694 111.91 253.92 111.402L253.952 111.331H255.311L255.295 111.394C255.006 112.535 253.803 113.66 251.819 113.66ZM251.725 106.152C250.475 106.152 249.522 107.003 249.373 108.605H254.03C253.889 106.941 252.967 106.152 251.725 106.152ZM259.434 113.66C257.833 113.66 256.622 112.691 256.622 111.16V111.144C256.622 109.644 257.731 108.777 259.692 108.66L262.106 108.511V107.745C262.106 106.706 261.473 106.144 260.216 106.144C259.208 106.144 258.544 106.519 258.325 107.175L258.317 107.199H256.958L256.966 107.152C257.184 105.831 258.466 104.941 260.262 104.941C262.317 104.941 263.466 105.995 263.466 107.745V113.511H262.106V112.269H261.981C261.45 113.167 260.567 113.66 259.434 113.66ZM258.012 111.128C258.012 111.98 258.739 112.48 259.716 112.48C261.098 112.48 262.106 111.574 262.106 110.37V109.605L259.856 109.745C258.575 109.824 258.012 110.277 258.012 111.113V111.128ZM265.55 113.511V105.089H266.909V106.339H267.034C267.355 105.456 268.144 104.941 269.284 104.941C269.542 104.941 269.831 104.972 269.964 104.995V106.316C269.683 106.269 269.425 106.238 269.128 106.238C267.831 106.238 266.909 107.058 266.909 108.292V113.511H265.55ZM18.1562 135.66C16.2812 135.66 14.9922 134.753 14.8359 133.363H16.2266C16.4531 134.066 17.125 134.527 18.2031 134.527C19.3359 134.527 20.1406 133.988 20.1406 133.222V133.206C20.1406 132.636 19.7109 132.238 18.6719 131.988L17.3672 131.675C15.7891 131.3 15.0781 130.613 15.0781 129.402V129.394C15.0781 127.995 16.4219 126.941 18.2109 126.941C19.9766 126.941 21.2031 127.824 21.3906 129.199H20.0547C19.875 128.535 19.2188 128.074 18.2031 128.074C17.2031 128.074 16.4688 128.589 16.4688 129.331V129.347C16.4688 129.917 16.8906 130.277 17.8828 130.519L19.1797 130.831C20.7656 131.214 21.5312 131.902 21.5312 133.105V133.12C21.5312 134.62 20.0703 135.66 18.1562 135.66ZM25.5531 135.66C23.9516 135.66 22.7406 134.691 22.7406 133.16V133.144C22.7406 131.644 23.85 130.777 25.8109 130.66L28.225 130.511V129.745C28.225 128.706 27.5922 128.144 26.3344 128.144C25.3266 128.144 24.6625 128.519 24.4437 129.175L24.4359 129.199H23.0766L23.0844 129.152C23.3031 127.831 24.5844 126.941 26.3812 126.941C28.4359 126.941 29.5844 127.995 29.5844 129.745V135.511H28.225V134.269H28.1C27.5687 135.167 26.6859 135.66 25.5531 135.66ZM24.1312 133.128C24.1312 133.98 24.8578 134.48 25.8344 134.48C27.2172 134.48 28.225 133.574 28.225 132.37V131.605L25.975 131.745C24.6937 131.824 24.1312 132.277 24.1312 133.113V133.128ZM31.7469 135.511V123.745H33.1063V135.511H31.7469ZM38.7531 135.66C36.3469 135.66 34.8937 133.972 34.8937 131.331V131.324C34.8937 128.722 36.3781 126.941 38.6672 126.941C40.9562 126.941 42.3469 128.644 42.3469 131.16V131.691H36.2844C36.3234 133.433 37.2844 134.449 38.7844 134.449C39.925 134.449 40.6281 133.91 40.8547 133.402L40.8859 133.331H42.2453L42.2297 133.394C41.9406 134.535 40.7375 135.66 38.7531 135.66ZM38.6594 128.152C37.4094 128.152 36.4562 129.003 36.3078 130.605H40.9641C40.8234 128.941 39.9016 128.152 38.6594 128.152ZM46.9469 135.66C45.0719 135.66 43.7828 134.753 43.6266 133.363H45.0172C45.2437 134.066 45.9156 134.527 46.9937 134.527C48.1266 134.527 48.9312 133.988 48.9312 133.222V133.206C48.9312 132.636 48.5016 132.238 47.4625 131.988L46.1578 131.675C44.5797 131.3 43.8687 130.613 43.8687 129.402V129.394C43.8687 127.995 45.2125 126.941 47.0016 126.941C48.7672 126.941 49.9937 127.824 50.1812 129.199H48.8453C48.6656 128.535 48.0094 128.074 46.9937 128.074C45.9937 128.074 45.2594 128.589 45.2594 129.331V129.347C45.2594 129.917 45.6812 130.277 46.6734 130.519L47.9703 130.831C49.5562 131.214 50.3219 131.902 50.3219 133.105V133.12C50.3219 134.62 48.8609 135.66 46.9469 135.66ZM58.4437 135.66C56.8422 135.66 55.6312 134.691 55.6312 133.16V133.144C55.6312 131.644 56.7406 130.777 58.7016 130.66L61.1156 130.511V129.745C61.1156 128.706 60.4828 128.144 59.225 128.144C58.2172 128.144 57.5531 128.519 57.3344 129.175L57.3266 129.199H55.9672L55.975 129.152C56.1937 127.831 57.475 126.941 59.2719 126.941C61.3266 126.941 62.475 127.995 62.475 129.745V135.511H61.1156V134.269H60.9906C60.4594 135.167 59.5766 135.66 58.4437 135.66ZM57.0219 133.128C57.0219 133.98 57.7484 134.48 58.725 134.48C60.1078 134.48 61.1156 133.574 61.1156 132.37V131.605L58.8656 131.745C57.5844 131.824 57.0219 132.277 57.0219 133.113V133.128ZM64.5594 135.511V127.089H65.9188V128.355H66.0438C66.4656 127.464 67.2547 126.941 68.4969 126.941C70.3875 126.941 71.4422 128.058 71.4422 130.058V135.511H70.0828V130.386C70.0828 128.87 69.4578 128.144 68.1141 128.144C66.7703 128.144 65.9188 129.05 65.9188 130.527V135.511H64.5594ZM76.6125 135.66C74.4797 135.66 73.0812 133.933 73.0812 131.308V131.292C73.0812 128.652 74.4719 126.941 76.6125 126.941C77.7687 126.941 78.7766 127.519 79.2375 128.417H79.3625V123.745H80.7219V135.511H79.3625V134.167H79.2375C78.7219 135.105 77.7844 135.66 76.6125 135.66ZM76.925 134.456C78.4562 134.456 79.3937 133.253 79.3937 131.308V131.292C79.3937 129.347 78.4562 128.144 76.925 128.144C75.3859 128.144 74.4719 129.331 74.4719 131.292V131.308C74.4719 133.269 75.3859 134.456 76.925 134.456ZM90.0234 135.574C88.2891 135.574 87.5625 134.933 87.5625 133.324V128.214H86.2344V127.089H87.5625V124.91H88.9688V127.089H90.8125V128.214H88.9688V132.98C88.9688 133.972 89.3125 134.37 90.1875 134.37C90.4297 134.37 90.5625 134.363 90.8125 134.339V135.495C90.5469 135.542 90.2891 135.574 90.0234 135.574ZM92.4437 135.511V127.089H93.8031V128.339H93.9281C94.2484 127.456 95.0375 126.941 96.1781 126.941C96.4359 126.941 96.725 126.972 96.8578 126.995V128.316C96.5766 128.269 96.3187 128.238 96.0219 128.238C94.725 128.238 93.8031 129.058 93.8031 130.292V135.511H92.4437ZM100.45 135.66C98.8484 135.66 97.6375 134.691 97.6375 133.16V133.144C97.6375 131.644 98.7469 130.777 100.708 130.66L103.122 130.511V129.745C103.122 128.706 102.489 128.144 101.231 128.144C100.223 128.144 99.5594 128.519 99.3406 129.175L99.3328 129.199H97.9734L97.9812 129.152C98.2 127.831 99.4812 126.941 101.278 126.941C103.333 126.941 104.481 127.995 104.481 129.745V135.511H103.122V134.269H102.997C102.466 135.167 101.583 135.66 100.45 135.66ZM99.0281 133.128C99.0281 133.98 99.7547 134.48 100.731 134.48C102.114 134.48 103.122 133.574 103.122 132.37V131.605L100.872 131.745C99.5906 131.824 99.0281 132.277 99.0281 133.113V133.128ZM108.636 135.511L105.519 127.089H106.956L109.261 134.027H109.386L111.691 127.089H113.128L110.011 135.511H108.636ZM117.65 135.66C115.244 135.66 113.791 133.972 113.791 131.331V131.324C113.791 128.722 115.275 126.941 117.564 126.941C119.853 126.941 121.244 128.644 121.244 131.16V131.691H115.181C115.22 133.433 116.181 134.449 117.681 134.449C118.822 134.449 119.525 133.91 119.752 133.402L119.783 133.331H121.142L121.127 133.394C120.838 134.535 119.634 135.66 117.65 135.66ZM117.556 128.152C116.306 128.152 115.353 129.003 115.205 130.605H119.861C119.72 128.941 118.798 128.152 117.556 128.152ZM123.031 135.511V123.745H124.391V135.511H123.031ZM133.809 135.66C131.677 135.66 130.278 133.933 130.278 131.308V131.292C130.278 128.652 131.669 126.941 133.809 126.941C134.966 126.941 135.973 127.519 136.434 128.417H136.559V123.745H137.919V135.511H136.559V134.167H136.434C135.919 135.105 134.981 135.66 133.809 135.66ZM134.122 134.456C135.653 134.456 136.591 133.253 136.591 131.308V131.292C136.591 129.347 135.653 128.144 134.122 128.144C132.583 128.144 131.669 129.331 131.669 131.292V131.308C131.669 133.269 132.583 134.456 134.122 134.456ZM143.566 135.66C141.159 135.66 139.706 133.972 139.706 131.331V131.324C139.706 128.722 141.191 126.941 143.48 126.941C145.769 126.941 147.159 128.644 147.159 131.16V131.691H141.097C141.136 133.433 142.097 134.449 143.597 134.449C144.738 134.449 145.441 133.91 145.667 133.402L145.698 133.331H147.058L147.042 133.394C146.753 134.535 145.55 135.66 143.566 135.66ZM143.472 128.152C142.222 128.152 141.269 129.003 141.12 130.605H145.777C145.636 128.941 144.714 128.152 143.472 128.152ZM151.181 135.66C149.58 135.66 148.369 134.691 148.369 133.16V133.144C148.369 131.644 149.478 130.777 151.439 130.66L153.853 130.511V129.745C153.853 128.706 153.22 128.144 151.962 128.144C150.955 128.144 150.291 128.519 150.072 129.175L150.064 129.199H148.705L148.712 129.152C148.931 127.831 150.212 126.941 152.009 126.941C154.064 126.941 155.212 127.995 155.212 129.745V135.511H153.853V134.269H153.728C153.197 135.167 152.314 135.66 151.181 135.66ZM149.759 133.128C149.759 133.98 150.486 134.48 151.462 134.48C152.845 134.48 153.853 133.574 153.853 132.37V131.605L151.603 131.745C150.322 131.824 149.759 132.277 149.759 133.113V133.128ZM157.375 135.511V123.745H158.734V135.511H157.375ZM163.834 135.66C161.959 135.66 160.67 134.753 160.514 133.363H161.905C162.131 134.066 162.803 134.527 163.881 134.527C165.014 134.527 165.819 133.988 165.819 133.222V133.206C165.819 132.636 165.389 132.238 164.35 131.988L163.045 131.675C161.467 131.3 160.756 130.613 160.756 129.402V129.394C160.756 127.995 162.1 126.941 163.889 126.941C165.655 126.941 166.881 127.824 167.069 129.199H165.733C165.553 128.535 164.897 128.074 163.881 128.074C162.881 128.074 162.147 128.589 162.147 129.331V129.347C162.147 129.917 162.569 130.277 163.561 130.519L164.858 130.831C166.444 131.214 167.209 131.902 167.209 133.105V133.12C167.209 134.62 165.748 135.66 163.834 135.66ZM173.738 125.464C173.222 125.464 172.8 125.042 172.8 124.527C172.8 124.011 173.222 123.589 173.738 123.589C174.253 123.589 174.675 124.011 174.675 124.527C174.675 125.042 174.253 125.464 173.738 125.464ZM173.05 135.511V127.089H174.409V135.511H173.05ZM179.462 135.66C177.587 135.66 176.298 134.753 176.142 133.363H177.533C177.759 134.066 178.431 134.527 179.509 134.527C180.642 134.527 181.447 133.988 181.447 133.222V133.206C181.447 132.636 181.017 132.238 179.978 131.988L178.673 131.675C177.095 131.3 176.384 130.613 176.384 129.402V129.394C176.384 127.995 177.728 126.941 179.517 126.941C181.283 126.941 182.509 127.824 182.697 129.199H181.361C181.181 128.535 180.525 128.074 179.509 128.074C178.509 128.074 177.775 128.589 177.775 129.331V129.347C177.775 129.917 178.197 130.277 179.189 130.519L180.486 130.831C182.072 131.214 182.837 131.902 182.837 133.105V133.12C182.837 134.62 181.377 135.66 179.462 135.66ZM190.959 135.66C189.358 135.66 188.147 134.691 188.147 133.16V133.144C188.147 131.644 189.256 130.777 191.217 130.66L193.631 130.511V129.745C193.631 128.706 192.998 128.144 191.741 128.144C190.733 128.144 190.069 128.519 189.85 129.175L189.842 129.199H188.483L188.491 129.152C188.709 127.831 189.991 126.941 191.788 126.941C193.842 126.941 194.991 127.995 194.991 129.745V135.511H193.631V134.269H193.506C192.975 135.167 192.092 135.66 190.959 135.66ZM189.538 133.128C189.538 133.98 190.264 134.48 191.241 134.48C192.623 134.48 193.631 133.574 193.631 132.37V131.605L191.381 131.745C190.1 131.824 189.538 132.277 189.538 133.113V133.128ZM197.153 135.511V123.745H198.512V135.511H197.153ZM203.613 135.66C201.738 135.66 200.448 134.753 200.292 133.363H201.683C201.909 134.066 202.581 134.527 203.659 134.527C204.792 134.527 205.597 133.988 205.597 133.222V133.206C205.597 132.636 205.167 132.238 204.128 131.988L202.823 131.675C201.245 131.3 200.534 130.613 200.534 129.402V129.394C200.534 127.995 201.878 126.941 203.667 126.941C205.433 126.941 206.659 127.824 206.847 129.199H205.511C205.331 128.535 204.675 128.074 203.659 128.074C202.659 128.074 201.925 128.589 201.925 129.331V129.347C201.925 129.917 202.347 130.277 203.339 130.519L204.636 130.831C206.222 131.214 206.988 131.902 206.988 133.105V133.12C206.988 134.62 205.527 135.66 203.613 135.66ZM212.158 135.66C209.759 135.66 208.275 134.003 208.275 131.308V131.292C208.275 128.589 209.759 126.941 212.158 126.941C214.556 126.941 216.041 128.589 216.041 131.292V131.308C216.041 134.003 214.556 135.66 212.158 135.66ZM212.158 134.456C213.752 134.456 214.65 133.292 214.65 131.308V131.292C214.65 129.3 213.752 128.144 212.158 128.144C210.564 128.144 209.666 129.3 209.666 131.292V131.308C209.666 133.292 210.564 134.456 212.158 134.456ZM18.1562 157.66C16.2812 157.66 14.9922 156.753 14.8359 155.363H16.2266C16.4531 156.066 17.125 156.527 18.2031 156.527C19.3359 156.527 20.1406 155.988 20.1406 155.222V155.206C20.1406 154.636 19.7109 154.238 18.6719 153.988L17.3672 153.675C15.7891 153.3 15.0781 152.613 15.0781 151.402V151.394C15.0781 149.995 16.4219 148.941 18.2109 148.941C19.9766 148.941 21.2031 149.824 21.3906 151.199H20.0547C19.875 150.535 19.2188 150.074 18.2031 150.074C17.2031 150.074 16.4688 150.589 16.4688 151.331V151.347C16.4688 151.917 16.8906 152.277 17.8828 152.519L19.1797 152.831C20.7656 153.214 21.5312 153.902 21.5312 155.105V155.12C21.5312 156.62 20.0703 157.66 18.1562 157.66ZM26.7016 157.66C24.3031 157.66 22.8187 156.003 22.8187 153.308V153.292C22.8187 150.589 24.3031 148.941 26.7016 148.941C29.1 148.941 30.5844 150.589 30.5844 153.292V153.308C30.5844 156.003 29.1 157.66 26.7016 157.66ZM26.7016 156.456C28.2953 156.456 29.1937 155.292 29.1937 153.308V153.292C29.1937 151.3 28.2953 150.144 26.7016 150.144C25.1078 150.144 24.2094 151.3 24.2094 153.292V153.308C24.2094 155.292 25.1078 156.456 26.7016 156.456ZM32.2938 157.511V149.089H33.6531V150.37H33.7781C34.1531 149.464 34.95 148.941 36.0516 148.941C37.1922 148.941 37.9891 149.542 38.3797 150.417H38.5047C38.9578 149.527 39.9188 148.941 41.0828 148.941C42.8016 148.941 43.7625 149.925 43.7625 151.691V157.511H42.4031V152.003C42.4031 150.761 41.8328 150.144 40.6453 150.144C39.4734 150.144 38.7 151.027 38.7 152.097V157.511H37.3406V151.792C37.3406 150.792 36.6531 150.144 35.5906 150.144C34.4891 150.144 33.6531 151.105 33.6531 152.292V157.511H32.2938ZM49.2531 157.66C46.8469 157.66 45.3937 155.972 45.3937 153.331V153.324C45.3937 150.722 46.8781 148.941 49.1672 148.941C51.4562 148.941 52.8469 150.644 52.8469 153.16V153.691H46.7844C46.8234 155.433 47.7844 156.449 49.2844 156.449C50.425 156.449 51.1281 155.91 51.3547 155.402L51.3859 155.331H52.7453L52.7297 155.394C52.4406 156.535 51.2375 157.66 49.2531 157.66ZM49.1594 150.152C47.9094 150.152 46.9562 151.003 46.8078 152.605H51.4641C51.3234 150.941 50.4016 150.152 49.1594 150.152ZM57.5484 157.574C55.8141 157.574 55.0875 156.933 55.0875 155.324V150.214H53.7594V149.089H55.0875V146.91H56.4938V149.089H58.3375V150.214H56.4938V154.98C56.4938 155.972 56.8375 156.37 57.7125 156.37C57.9547 156.37 58.0875 156.363 58.3375 156.339V157.495C58.0719 157.542 57.8141 157.574 57.5484 157.574ZM60.0469 157.511V145.745H61.4062V150.355H61.5312C61.9531 149.464 62.7422 148.941 63.9844 148.941C65.875 148.941 66.9297 150.058 66.9297 152.058V157.511H65.5703V152.386C65.5703 150.87 64.9453 150.144 63.6016 150.144C62.2578 150.144 61.4062 151.05 61.4062 152.527V157.511H60.0469ZM69.7094 147.464C69.1937 147.464 68.7719 147.042 68.7719 146.527C68.7719 146.011 69.1937 145.589 69.7094 145.589C70.225 145.589 70.6469 146.011 70.6469 146.527C70.6469 147.042 70.225 147.464 69.7094 147.464ZM69.0219 157.511V149.089H70.3812V157.511H69.0219ZM72.5438 157.511V149.089H73.9031V150.355H74.0281C74.45 149.464 75.2391 148.941 76.4813 148.941C78.3719 148.941 79.4266 150.058 79.4266 152.058V157.511H78.0672V152.386C78.0672 150.87 77.4422 150.144 76.0984 150.144C74.7547 150.144 73.9031 151.05 73.9031 152.527V157.511H72.5438ZM84.9563 160.48C82.925 160.48 81.6281 159.566 81.4172 158.183L81.4328 158.175H82.8391L82.8469 158.183C82.9953 158.824 83.7453 159.277 84.9563 159.277C86.4641 159.277 87.3625 158.566 87.3625 157.324V155.62H87.2375C86.7063 156.55 85.7531 157.074 84.5969 157.074C82.4172 157.074 81.0656 155.386 81.0656 153.027V153.011C81.0656 150.652 82.425 148.941 84.6281 148.941C85.8156 148.941 86.7375 149.527 87.2531 150.48H87.3469V149.089H88.7063V157.394C88.7063 159.277 87.2531 160.48 84.9563 160.48ZM84.8938 155.87C86.4563 155.87 87.3938 154.699 87.3938 153.027V153.011C87.3938 151.339 86.4484 150.144 84.8938 150.144C83.3313 150.144 82.4563 151.339 82.4563 153.011V153.027C82.4563 154.699 83.3313 155.87 84.8938 155.87ZM95.1094 157.511V146.238H96.5156V157.511H95.1094ZM105.302 157.511L102.184 149.089H103.622L105.927 156.027H106.052L108.356 149.089H109.794L106.677 157.511H105.302ZM113.191 157.66C111.589 157.66 110.378 156.691 110.378 155.16V155.144C110.378 153.644 111.488 152.777 113.448 152.66L115.863 152.511V151.745C115.863 150.706 115.23 150.144 113.972 150.144C112.964 150.144 112.3 150.519 112.081 151.175L112.073 151.199H110.714L110.722 151.152C110.941 149.831 112.222 148.941 114.019 148.941C116.073 148.941 117.222 149.995 117.222 151.745V157.511H115.863V156.269H115.738C115.206 157.167 114.323 157.66 113.191 157.66ZM111.769 155.128C111.769 155.98 112.495 156.48 113.472 156.48C114.855 156.48 115.863 155.574 115.863 154.37V153.605L113.613 153.745C112.331 153.824 111.769 154.277 111.769 155.113V155.128ZM119.384 157.511V145.745H120.744V157.511H119.384ZM125.773 157.66C123.859 157.66 122.875 156.535 122.875 154.542V149.089H124.234V154.214C124.234 155.73 124.781 156.456 126.125 156.456C127.609 156.456 128.398 155.55 128.398 154.074V149.089H129.758V157.511H128.398V156.253H128.273C127.859 157.152 127.008 157.66 125.773 157.66ZM135.334 157.66C132.928 157.66 131.475 155.972 131.475 153.331V153.324C131.475 150.722 132.959 148.941 135.248 148.941C137.537 148.941 138.928 150.644 138.928 153.16V153.691H132.866C132.905 155.433 133.866 156.449 135.366 156.449C136.506 156.449 137.209 155.91 137.436 155.402L137.467 155.331H138.827L138.811 155.394C138.522 156.535 137.319 157.66 135.334 157.66ZM135.241 150.152C133.991 150.152 133.037 151.003 132.889 152.605H137.545C137.405 150.941 136.483 150.152 135.241 150.152ZM141.747 157.589C141.192 157.589 140.731 157.128 140.731 156.574C140.731 156.011 141.192 155.558 141.747 155.558C142.309 155.558 142.762 156.011 142.762 156.574C142.762 157.128 142.309 157.589 141.747 157.589Z" fill="black"/>
<path d="M252.024 156.794C253.442 156.794 254.94 157.793 254.94 160.71V160.72C254.94 163.363 253.839 164.91 251.959 164.91C250.66 164.91 249.693 164.147 249.43 163.003L249.414 162.933H250.386L250.407 162.992C250.644 163.642 251.186 164.045 251.97 164.045C253.377 164.045 253.952 162.67 254.011 161.053C254.017 160.994 254.017 160.93 254.017 160.871H253.915C253.63 161.505 252.899 162.069 251.852 162.069C250.396 162.069 249.312 160.962 249.312 159.474V159.464C249.312 157.917 250.461 156.794 252.024 156.794ZM252.019 161.225C253.023 161.225 253.786 160.49 253.786 159.48V159.474C253.786 158.454 253.018 157.648 252.035 157.648C251.062 157.648 250.284 158.438 250.284 159.442V159.453C250.284 160.484 251.014 161.225 252.019 161.225ZM257.261 159.469C256.879 159.469 256.562 159.152 256.562 158.771C256.562 158.384 256.879 158.073 257.261 158.073C257.647 158.073 257.959 158.384 257.959 158.771C257.959 159.152 257.647 159.469 257.261 159.469ZM257.261 163.626C256.879 163.626 256.562 163.309 256.562 162.928C256.562 162.541 256.879 162.23 257.261 162.23C257.647 162.23 257.959 162.541 257.959 162.928C257.959 163.309 257.647 163.626 257.261 163.626ZM261.654 164.727V158.051H261.568L259.597 159.48V158.459L261.66 156.977H262.621V164.727H261.654ZM267.6 164.91C266.182 164.91 264.684 163.911 264.684 160.994V160.984C264.684 158.341 265.785 156.794 267.665 156.794C268.964 156.794 269.931 157.557 270.194 158.701L270.21 158.771H269.238L269.217 158.712C268.98 158.062 268.438 157.659 267.654 157.659C266.247 157.659 265.672 159.034 265.613 160.651C265.607 160.71 265.607 160.774 265.607 160.833H265.709C265.994 160.199 266.725 159.635 267.772 159.635C269.228 159.635 270.312 160.742 270.312 162.23V162.24C270.312 163.787 269.163 164.91 267.6 164.91ZM265.838 162.23C265.838 163.25 266.606 164.056 267.589 164.056C268.562 164.056 269.34 163.266 269.34 162.262V162.251C269.34 161.22 268.61 160.479 267.605 160.479C266.601 160.479 265.838 161.215 265.838 162.224V162.23Z" fill="#2BA32F"/>
</svg>
