<svg width="310" height="114" viewBox="0 0 310 114" fill="none" xmlns="http://www.w3.org/2000/svg">
<path d="M308.843 33.2489L308.831 33.25H308.819H295.5H286H209.5H209.499L56.9709 32.7111C52.4259 32.695 48.75 29.0061 48.75 24.4611V9C48.75 4.44365 52.4437 0.75 57 0.75H294.931C299.488 0.75 303.181 4.44366 303.181 9.00001V16.8504C303.181 17.1218 303.174 17.392 303.16 17.6614C303.112 20.3354 303.172 22.5341 303.339 24.2602C303.508 25.9938 303.783 27.2268 304.15 27.9845C304.844 29.4167 306.334 30.8317 308.67 32.2174C308.67 32.2176 308.67 32.2177 308.67 32.2179L309.001 32.4107C309.03 32.4271 309.057 32.4457 309.082 32.4662L309.083 32.4666C309.102 32.4818 309.147 32.5182 309.182 32.5743C309.268 32.7104 309.276 32.8891 309.185 33.037C309.11 33.1591 308.982 33.2358 308.843 33.2489Z" fill="#E1FFC8" stroke="#B5CADD" stroke-width="0.5"/>
<path fill-rule="evenodd" clip-rule="evenodd" d="M294.134 19.0161L287.634 25.764L287.578 25.8327C287.451 26.0253 287.48 26.2841 287.66 26.4451C287.862 26.6263 288.178 26.615 288.366 26.4199L294.866 19.672L294.922 19.6033C295.049 19.4107 295.02 19.1519 294.84 18.9909C294.638 18.8097 294.322 18.821 294.134 19.0161ZM290.635 19.0144L284.436 25.39L281.862 22.7839L281.794 22.7265C281.603 22.5918 281.333 22.604 281.155 22.7671C280.955 22.9507 280.947 23.2558 281.138 23.4486L284.076 26.4243L284.147 26.4837C284.347 26.6221 284.629 26.6012 284.803 26.4216L291.365 19.6737L291.42 19.6052C291.549 19.4132 291.521 19.1542 291.342 18.9924C291.14 18.8103 290.824 18.8202 290.635 19.0144Z" fill="#17C700"/>
<path d="M63.3438 22.9617V11.196H64.7031V15.8054H64.8281C65.25 14.9148 66.0391 14.3914 67.2812 14.3914C69.1719 14.3914 70.2266 15.5085 70.2266 17.5085V22.9617H68.8672V17.8367C68.8672 16.321 68.2422 15.5945 66.8984 15.5945C65.5547 15.5945 64.7031 16.5007 64.7031 17.9773V22.9617H63.3438ZM75.2797 23.0242C73.5453 23.0242 72.8188 22.3835 72.8188 20.7742V15.6648H71.4906V14.5398H72.8188V12.3601H74.225V14.5398H76.0688V15.6648H74.225V20.4304C74.225 21.4226 74.5688 21.821 75.4438 21.821C75.6859 21.821 75.8188 21.8132 76.0688 21.7898V22.946C75.8031 22.9929 75.5453 23.0242 75.2797 23.0242ZM80.6922 23.0242C78.9578 23.0242 78.2312 22.3835 78.2312 20.7742V15.6648H76.9031V14.5398H78.2312V12.3601H79.6375V14.5398H81.4812V15.6648H79.6375V20.4304C79.6375 21.4226 79.9812 21.821 80.8562 21.821C81.0984 21.821 81.2312 21.8132 81.4812 21.7898V22.946C81.2156 22.9929 80.9578 23.0242 80.6922 23.0242ZM83.1125 25.7742V14.5398H84.4719V15.8835H84.5969C85.1125 14.946 86.05 14.3914 87.2219 14.3914C89.3547 14.3914 90.7531 16.1179 90.7531 18.7429V18.7585C90.7531 21.3992 89.3625 23.1101 87.2219 23.1101C86.0656 23.1101 85.0578 22.532 84.5969 21.6335H84.4719V25.7742H83.1125ZM86.9094 21.907C88.4484 21.907 89.3625 20.7195 89.3625 18.7585V18.7429C89.3625 16.782 88.4484 15.5945 86.9094 15.5945C85.3781 15.5945 84.4406 16.7976 84.4406 18.7429V18.7585C84.4406 20.7039 85.3781 21.907 86.9094 21.907ZM95.3687 23.1101C93.4937 23.1101 92.2047 22.2039 92.0484 20.8132H93.4391C93.6656 21.5164 94.3375 21.9773 95.4156 21.9773C96.5484 21.9773 97.3531 21.4382 97.3531 20.6726V20.657C97.3531 20.0867 96.9234 19.6882 95.8844 19.4382L94.5797 19.1257C93.0016 18.7507 92.2906 18.0632 92.2906 16.8523V16.8445C92.2906 15.446 93.6344 14.3914 95.4234 14.3914C97.1891 14.3914 98.4156 15.2742 98.6031 16.6492H97.2672C97.0875 15.9851 96.4312 15.5242 95.4156 15.5242C94.4156 15.5242 93.6812 16.0398 93.6812 16.782V16.7976C93.6812 17.3679 94.1031 17.7273 95.0953 17.9695L96.3922 18.282C97.9781 18.6648 98.7437 19.3523 98.7437 20.5554V20.571C98.7437 22.071 97.2828 23.1101 95.3687 23.1101ZM101.562 16.9929C101.008 16.9929 100.547 16.532 100.547 15.9773C100.547 15.4148 101.008 14.9617 101.562 14.9617C102.125 14.9617 102.578 15.4148 102.578 15.9773C102.578 16.532 102.125 16.9929 101.562 16.9929ZM101.562 23.0398C101.008 23.0398 100.547 22.5789 100.547 22.0242C100.547 21.4617 101.008 21.0085 101.562 21.0085C102.125 21.0085 102.578 21.4617 102.578 22.0242C102.578 22.5789 102.125 23.0398 101.562 23.0398ZM108.405 11.196L104.842 25.7742H103.537L107.1 11.196H108.405ZM112.88 11.196L109.317 25.7742H108.013L111.575 11.196H112.88ZM116.745 23.0242C115.011 23.0242 114.284 22.3835 114.284 20.7742V15.6648H112.956V14.5398H114.284V12.3601H115.691V14.5398H117.534V15.6648H115.691V20.4304C115.691 21.4226 116.034 21.821 116.909 21.821C117.152 21.821 117.284 21.8132 117.534 21.7898V22.946C117.269 22.9929 117.011 23.0242 116.745 23.0242ZM120.275 23.0398C119.72 23.0398 119.259 22.5789 119.259 22.0242C119.259 21.4617 119.72 21.0085 120.275 21.0085C120.838 21.0085 121.291 21.4617 121.291 22.0242C121.291 22.5789 120.838 23.0398 120.275 23.0398ZM123.516 22.9617V14.5398H124.875V15.821H125C125.375 14.9148 126.172 14.3914 127.273 14.3914C128.414 14.3914 129.211 14.9929 129.602 15.8679H129.727C130.18 14.9773 131.141 14.3914 132.305 14.3914C134.023 14.3914 134.984 15.3757 134.984 17.1414V22.9617H133.625V17.4539C133.625 16.2117 133.055 15.5945 131.867 15.5945C130.695 15.5945 129.922 16.4773 129.922 17.5476V22.9617H128.562V17.2429C128.562 16.2429 127.875 15.5945 126.812 15.5945C125.711 15.5945 124.875 16.5554 124.875 17.7429V22.9617H123.516ZM140.475 23.1101C138.069 23.1101 136.616 21.4226 136.616 18.782V18.7742C136.616 16.1726 138.1 14.3914 140.389 14.3914C142.678 14.3914 144.069 16.0945 144.069 18.6101V19.1414H138.006C138.045 20.8835 139.006 21.8992 140.506 21.8992C141.647 21.8992 142.35 21.3601 142.577 20.8523L142.608 20.782H143.967L143.952 20.8445C143.662 21.9851 142.459 23.1101 140.475 23.1101ZM140.381 15.6023C139.131 15.6023 138.178 16.4539 138.03 18.0554H142.686C142.545 16.3914 141.623 15.6023 140.381 15.6023ZM149.38 11.196L145.817 25.7742H144.512L148.075 11.196H149.38ZM150.425 22.9617V11.6882H154.675C156.792 11.6882 158.292 13.1492 158.292 15.2898V15.3054C158.292 17.446 156.792 18.9382 154.675 18.9382H151.831V22.9617H150.425ZM154.316 12.9382H151.831V17.6882H154.316C155.925 17.6882 156.855 16.8054 156.855 15.321V15.3054C156.855 13.821 155.925 12.9382 154.316 12.9382ZM162.025 23.1101C160.423 23.1101 159.213 22.1414 159.213 20.6101V20.5945C159.213 19.0945 160.322 18.2273 162.283 18.1101L164.697 17.9617V17.196C164.697 16.157 164.064 15.5945 162.806 15.5945C161.798 15.5945 161.134 15.9695 160.916 16.6257L160.908 16.6492H159.548L159.556 16.6023C159.775 15.282 161.056 14.3914 162.853 14.3914C164.908 14.3914 166.056 15.446 166.056 17.196V22.9617H164.697V21.7195H164.572C164.041 22.6179 163.158 23.1101 162.025 23.1101ZM160.603 20.5789C160.603 21.4304 161.33 21.9304 162.306 21.9304C163.689 21.9304 164.697 21.0242 164.697 19.821V19.0554L162.447 19.196C161.166 19.2742 160.603 19.7273 160.603 20.5632V20.5789ZM171.25 23.1101C169.117 23.1101 167.719 21.3835 167.719 18.7585V18.7429C167.719 16.1023 169.109 14.3914 171.25 14.3914C172.406 14.3914 173.414 14.9695 173.875 15.8679H174V11.196H175.359V22.9617H174V21.6179H173.875C173.359 22.5554 172.422 23.1101 171.25 23.1101ZM171.562 21.907C173.094 21.907 174.031 20.7039 174.031 18.7585V18.7429C174.031 16.7976 173.094 15.5945 171.562 15.5945C170.023 15.5945 169.109 16.782 169.109 18.7429V18.7585C169.109 20.7195 170.023 21.907 171.562 21.907ZM180.678 23.1101C178.545 23.1101 177.147 21.3835 177.147 18.7585V18.7429C177.147 16.1023 178.537 14.3914 180.678 14.3914C181.834 14.3914 182.842 14.9695 183.303 15.8679H183.428V11.196H184.787V22.9617H183.428V21.6179H183.303C182.787 22.5554 181.85 23.1101 180.678 23.1101ZM180.991 21.907C182.522 21.907 183.459 20.7039 183.459 18.7585V18.7429C183.459 16.7976 182.522 15.5945 180.991 15.5945C179.452 15.5945 178.537 16.782 178.537 18.7429V18.7585C178.537 20.7195 179.452 21.907 180.991 21.907ZM187.075 22.9617V11.196H188.434V22.9617H187.075ZM194.081 23.1101C191.675 23.1101 190.222 21.4226 190.222 18.782V18.7742C190.222 16.1726 191.706 14.3914 193.995 14.3914C196.284 14.3914 197.675 16.0945 197.675 18.6101V19.1414H191.613C191.652 20.8835 192.613 21.8992 194.113 21.8992C195.253 21.8992 195.956 21.3601 196.183 20.8523L196.214 20.782H197.573L197.558 20.8445C197.269 21.9851 196.066 23.1101 194.081 23.1101ZM193.988 15.6023C192.738 15.6023 191.784 16.4539 191.636 18.0554H196.292C196.152 16.3914 195.23 15.6023 193.988 15.6023ZM199.556 22.9617V11.6882H203.869C205.939 11.6882 207.205 12.7742 207.205 14.4929V14.5085C207.205 15.6726 206.345 16.7351 205.259 16.9304V17.0554C206.798 17.2507 207.775 18.3054 207.775 19.7898V19.8054C207.775 21.782 206.353 22.9617 203.955 22.9617H199.556ZM203.572 12.9304H200.962V16.5476H203.212C204.916 16.5476 205.783 15.9382 205.783 14.7507V14.7351C205.783 13.5945 204.97 12.9304 203.572 12.9304ZM203.611 17.7585H200.962V21.7195H203.744C205.439 21.7195 206.33 21.032 206.33 19.7351V19.7195C206.33 18.4226 205.408 17.7585 203.611 17.7585ZM212.32 23.1101C210.406 23.1101 209.422 21.9851 209.422 19.9929V14.5398H210.781V19.6648C210.781 21.1804 211.328 21.907 212.672 21.907C214.156 21.907 214.945 21.0007 214.945 19.5242V14.5398H216.305V22.9617H214.945V21.7039H214.82C214.406 22.6023 213.555 23.1101 212.32 23.1101ZM221.553 23.1101C219.42 23.1101 218.022 21.3835 218.022 18.7585V18.7429C218.022 16.1023 219.413 14.3914 221.553 14.3914C222.709 14.3914 223.717 14.9695 224.178 15.8679H224.303V11.196H225.663V22.9617H224.303V21.6179H224.178C223.663 22.5554 222.725 23.1101 221.553 23.1101ZM221.866 21.907C223.397 21.907 224.334 20.7039 224.334 18.7585V18.7429C224.334 16.7976 223.397 15.5945 221.866 15.5945C220.327 15.5945 219.413 16.782 219.413 18.7429V18.7585C219.413 20.7195 220.327 21.907 221.866 21.907ZM230.981 23.1101C228.848 23.1101 227.45 21.3835 227.45 18.7585V18.7429C227.45 16.1023 228.841 14.3914 230.981 14.3914C232.137 14.3914 233.145 14.9695 233.606 15.8679H233.731V11.196H235.091V22.9617H233.731V21.6179H233.606C233.091 22.5554 232.153 23.1101 230.981 23.1101ZM231.294 21.907C232.825 21.907 233.762 20.7039 233.762 18.7585V18.7429C233.762 16.7976 232.825 15.5945 231.294 15.5945C229.755 15.5945 228.841 16.782 228.841 18.7429V18.7585C228.841 20.7195 229.755 21.907 231.294 21.907ZM238.019 25.9148C237.839 25.9148 237.605 25.8992 237.417 25.8679V24.7507C237.581 24.782 237.792 24.7898 237.98 24.7898C238.753 24.7898 239.222 24.4382 239.527 23.4695L239.683 22.9695L236.566 14.5398H238.019L240.331 21.4695H240.456L242.761 14.5398H244.191L240.902 23.4773C240.206 25.3679 239.511 25.9148 238.019 25.9148Z" fill="#004BAE"/>
<path d="M258.024 17.9519C259.442 17.9519 260.94 18.9509 260.94 21.8674V21.8782C260.94 24.5208 259.839 26.0676 257.959 26.0676C256.66 26.0676 255.693 25.3049 255.43 24.1609L255.414 24.0911H256.386L256.407 24.1501C256.644 24.8 257.186 25.2029 257.97 25.2029C259.377 25.2029 259.952 23.8279 260.011 22.2112C260.017 22.1521 260.017 22.0876 260.017 22.0286H259.915C259.63 22.6624 258.899 23.2263 257.852 23.2263C256.396 23.2263 255.312 22.1199 255.312 20.6321V20.6213C255.312 19.0745 256.461 17.9519 258.024 17.9519ZM258.019 22.3831C259.023 22.3831 259.786 21.6472 259.786 20.6375V20.6321C259.786 19.6116 259.018 18.8059 258.035 18.8059C257.062 18.8059 256.284 19.5955 256.284 20.5999V20.6106C256.284 21.6418 257.014 22.3831 258.019 22.3831ZM263.261 20.6267C262.879 20.6267 262.562 20.3098 262.562 19.9285C262.562 19.5417 262.879 19.2302 263.261 19.2302C263.647 19.2302 263.959 19.5417 263.959 19.9285C263.959 20.3098 263.647 20.6267 263.261 20.6267ZM263.261 24.7839C262.879 24.7839 262.562 24.467 262.562 24.0857C262.562 23.699 262.879 23.3875 263.261 23.3875C263.647 23.3875 263.959 23.699 263.959 24.0857C263.959 24.467 263.647 24.7839 263.261 24.7839ZM267.654 25.885V19.2087H267.568L265.597 20.6375V19.6169L267.66 18.1345H268.621V25.885H267.654ZM273.396 17.9519C274.814 17.9519 276.312 18.9509 276.312 21.8674V21.8782C276.312 24.5208 275.211 26.0676 273.332 26.0676C272.032 26.0676 271.065 25.3049 270.802 24.1609L270.786 24.0911H271.758L271.779 24.1501C272.016 24.8 272.558 25.2029 273.342 25.2029C274.75 25.2029 275.324 23.8279 275.383 22.2112C275.389 22.1521 275.389 22.0876 275.389 22.0286H275.287C275.002 22.6624 274.271 23.2263 273.224 23.2263C271.769 23.2263 270.684 22.1199 270.684 20.6321V20.6213C270.684 19.0745 271.833 17.9519 273.396 17.9519ZM273.391 22.3831C274.395 22.3831 275.158 21.6472 275.158 20.6375V20.6321C275.158 19.6116 274.39 18.8059 273.407 18.8059C272.435 18.8059 271.656 19.5955 271.656 20.5999V20.6106C271.656 21.6418 272.386 22.3831 273.391 22.3831Z" fill="#2BA32F"/>
<path d="M308.831 113.25L308.843 113.249C308.982 113.236 309.11 113.159 309.185 113.037C309.276 112.889 309.268 112.71 309.182 112.574C309.147 112.518 309.102 112.482 309.083 112.467L309.082 112.466L309.082 112.466L308.926 112.661C308.91 112.648 308.893 112.637 308.876 112.627L308.831 113.25ZM308.831 113.25H308.819H295.5H286H209.5H9C4.44366 113.25 0.75 109.556 0.75 105V89C0.75 84.4437 4.44363 80.75 8.99997 80.75H294.931C299.488 80.75 303.181 84.4437 303.181 89V96.8504C303.181 97.1218 303.174 97.392 303.16 97.6614C303.112 100.335 303.172 102.534 303.339 104.26C303.508 105.994 303.783 107.227 304.15 107.984C304.844 109.417 306.334 110.832 308.67 112.217M308.831 113.25L308.67 112.217M308.67 112.218L309.001 112.411L308.67 112.218ZM308.67 112.218C308.67 112.218 308.67 112.218 308.67 112.217M308.67 112.218L308.67 112.217" fill="#E1FFC8" stroke="#B5CADD" stroke-width="0.5"/>
<path fill-rule="evenodd" clip-rule="evenodd" d="M294.134 99.0161L287.634 105.764L287.578 105.833C287.451 106.025 287.48 106.284 287.66 106.445C287.862 106.626 288.178 106.615 288.366 106.42L294.866 99.672L294.922 99.6033C295.049 99.4107 295.02 99.1519 294.84 98.9909C294.638 98.8097 294.322 98.821 294.134 99.0161ZM290.635 99.0144L284.436 105.39L281.862 102.784L281.794 102.727C281.603 102.592 281.333 102.604 281.155 102.767C280.955 102.951 280.947 103.256 281.138 103.449L284.076 106.424L284.147 106.484C284.347 106.622 284.629 106.601 284.803 106.422L291.365 99.6737L291.42 99.6052C291.549 99.4132 291.521 99.1542 291.342 98.9924C291.14 98.8103 290.824 98.8202 290.635 99.0144Z" fill="#17C700"/>
<path d="M13.3438 102.962V91.196H14.7031V95.8054H14.8281C15.25 94.9148 16.0391 94.3914 17.2812 94.3914C19.1719 94.3914 20.2266 95.5085 20.2266 97.5085V102.962H18.8672V97.8367C18.8672 96.321 18.2422 95.5945 16.8984 95.5945C15.5547 95.5945 14.7031 96.5007 14.7031 97.9773V102.962H13.3438ZM25.2797 103.024C23.5453 103.024 22.8188 102.384 22.8188 100.774V95.6648H21.4906V94.5398H22.8188V92.3601H24.225V94.5398H26.0688V95.6648H24.225V100.43C24.225 101.423 24.5688 101.821 25.4438 101.821C25.6859 101.821 25.8188 101.813 26.0688 101.79V102.946C25.8031 102.993 25.5453 103.024 25.2797 103.024ZM30.6922 103.024C28.9578 103.024 28.2312 102.384 28.2312 100.774V95.6648H26.9031V94.5398H28.2312V92.3601H29.6375V94.5398H31.4812V95.6648H29.6375V100.43C29.6375 101.423 29.9812 101.821 30.8562 101.821C31.0984 101.821 31.2312 101.813 31.4812 101.79V102.946C31.2156 102.993 30.9578 103.024 30.6922 103.024ZM33.1125 105.774V94.5398H34.4719V95.8835H34.5969C35.1125 94.946 36.05 94.3914 37.2219 94.3914C39.3547 94.3914 40.7531 96.1179 40.7531 98.7429V98.7585C40.7531 101.399 39.3625 103.11 37.2219 103.11C36.0656 103.11 35.0578 102.532 34.5969 101.634H34.4719V105.774H33.1125ZM36.9094 101.907C38.4484 101.907 39.3625 100.719 39.3625 98.7585V98.7429C39.3625 96.782 38.4484 95.5945 36.9094 95.5945C35.3781 95.5945 34.4406 96.7976 34.4406 98.7429V98.7585C34.4406 100.704 35.3781 101.907 36.9094 101.907ZM45.3687 103.11C43.4937 103.11 42.2047 102.204 42.0484 100.813H43.4391C43.6656 101.516 44.3375 101.977 45.4156 101.977C46.5484 101.977 47.3531 101.438 47.3531 100.673V100.657C47.3531 100.087 46.9234 99.6882 45.8844 99.4382L44.5797 99.1257C43.0016 98.7507 42.2906 98.0632 42.2906 96.8523V96.8445C42.2906 95.446 43.6344 94.3914 45.4234 94.3914C47.1891 94.3914 48.4156 95.2742 48.6031 96.6492H47.2672C47.0875 95.9851 46.4312 95.5242 45.4156 95.5242C44.4156 95.5242 43.6812 96.0398 43.6812 96.782V96.7976C43.6812 97.3679 44.1031 97.7273 45.0953 97.9695L46.3922 98.282C47.9781 98.6648 48.7437 99.3523 48.7437 100.555V100.571C48.7437 102.071 47.2828 103.11 45.3687 103.11ZM51.5625 96.9929C51.0078 96.9929 50.5469 96.532 50.5469 95.9773C50.5469 95.4148 51.0078 94.9617 51.5625 94.9617C52.125 94.9617 52.5781 95.4148 52.5781 95.9773C52.5781 96.532 52.125 96.9929 51.5625 96.9929ZM51.5625 103.04C51.0078 103.04 50.5469 102.579 50.5469 102.024C50.5469 101.462 51.0078 101.009 51.5625 101.009C52.125 101.009 52.5781 101.462 52.5781 102.024C52.5781 102.579 52.125 103.04 51.5625 103.04ZM58.4047 91.196L54.8422 105.774H53.5375L57.1 91.196H58.4047ZM62.8797 91.196L59.3172 105.774H58.0125L61.575 91.196H62.8797ZM66.7453 103.024C65.0109 103.024 64.2844 102.384 64.2844 100.774V95.6648H62.9562V94.5398H64.2844V92.3601H65.6906V94.5398H67.5344V95.6648H65.6906V100.43C65.6906 101.423 66.0344 101.821 66.9094 101.821C67.1516 101.821 67.2844 101.813 67.5344 101.79V102.946C67.2687 102.993 67.0109 103.024 66.7453 103.024ZM70.275 103.04C69.7203 103.04 69.2594 102.579 69.2594 102.024C69.2594 101.462 69.7203 101.009 70.275 101.009C70.8375 101.009 71.2906 101.462 71.2906 102.024C71.2906 102.579 70.8375 103.04 70.275 103.04ZM73.5156 102.962V94.5398H74.875V95.821H75C75.375 94.9148 76.1719 94.3914 77.2734 94.3914C78.4141 94.3914 79.2109 94.9929 79.6016 95.8679H79.7266C80.1797 94.9773 81.1406 94.3914 82.3047 94.3914C84.0234 94.3914 84.9844 95.3757 84.9844 97.1414V102.962H83.625V97.4539C83.625 96.2117 83.0547 95.5945 81.8672 95.5945C80.6953 95.5945 79.9219 96.4773 79.9219 97.5476V102.962H78.5625V97.2429C78.5625 96.2429 77.875 95.5945 76.8125 95.5945C75.7109 95.5945 74.875 96.5554 74.875 97.7429V102.962H73.5156ZM90.475 103.11C88.0687 103.11 86.6156 101.423 86.6156 98.782V98.7742C86.6156 96.1726 88.1 94.3914 90.3891 94.3914C92.6781 94.3914 94.0687 96.0945 94.0687 98.6101V99.1414H88.0062C88.0453 100.884 89.0062 101.899 90.5062 101.899C91.6469 101.899 92.35 101.36 92.5766 100.852L92.6078 100.782H93.9672L93.9516 100.844C93.6625 101.985 92.4594 103.11 90.475 103.11ZM90.3812 95.6023C89.1312 95.6023 88.1781 96.4539 88.0297 98.0554H92.6859C92.5453 96.3914 91.6234 95.6023 90.3812 95.6023ZM99.3797 91.196L95.8172 105.774H94.5125L98.075 91.196H99.3797ZM99.8938 99.0554V97.7898H103.394V94.2117H104.659V97.7898H108.159V99.0554H104.659V102.634H103.394V99.0554H99.8938ZM109.923 102.962V101.993L113.736 97.8679C115.173 96.3132 115.595 95.7273 115.595 94.7429V94.7273C115.595 93.5398 114.791 92.6492 113.463 92.6492C112.111 92.6492 111.213 93.532 111.213 94.8601L111.205 94.8757L109.861 94.8679L109.845 94.8601C109.853 92.8601 111.4 91.4226 113.556 91.4226C115.525 91.4226 117.033 92.7585 117.033 94.5789V94.5945C117.033 95.8835 116.478 96.821 114.439 98.9226L111.877 101.571V101.696H117.22V102.962H109.923ZM121.938 102.962V93.2507H121.812L118.945 95.3289V93.8445L121.945 91.6882H123.344V102.962H121.938ZM129.1 103.11C127.225 103.11 125.936 102.204 125.78 100.813H127.17C127.397 101.516 128.069 101.977 129.147 101.977C130.28 101.977 131.084 101.438 131.084 100.673V100.657C131.084 100.087 130.655 99.6882 129.616 99.4382L128.311 99.1257C126.733 98.7507 126.022 98.0632 126.022 96.8523V96.8445C126.022 95.446 127.366 94.3914 129.155 94.3914C130.92 94.3914 132.147 95.2742 132.334 96.6492H130.998C130.819 95.9851 130.162 95.5242 129.147 95.5242C128.147 95.5242 127.412 96.0398 127.412 96.782V96.7976C127.412 97.3679 127.834 97.7273 128.827 97.9695L130.123 98.282C131.709 98.6648 132.475 99.3523 132.475 100.555V100.571C132.475 102.071 131.014 103.11 129.1 103.11ZM137.63 103.11C135.27 103.11 133.762 101.399 133.762 98.7273V98.7117C133.762 96.0945 135.262 94.3914 137.622 94.3914C139.669 94.3914 140.895 95.571 141.145 97.071L141.153 97.1179H139.802L139.794 97.0945C139.583 96.2664 138.833 95.5945 137.622 95.5945C136.106 95.5945 135.153 96.8132 135.153 98.7117V98.7273C135.153 100.665 136.122 101.907 137.622 101.907C138.755 101.907 139.473 101.407 139.786 100.469L139.802 100.423L141.145 100.415L141.13 100.501C140.786 102.024 139.653 103.11 137.63 103.11ZM143.456 105.915C143.277 105.915 143.042 105.899 142.855 105.868V104.751C143.019 104.782 143.23 104.79 143.417 104.79C144.191 104.79 144.659 104.438 144.964 103.469L145.12 102.969L142.003 94.5398H143.456L145.769 101.469H145.894L148.198 94.5398H149.628L146.339 103.477C145.644 105.368 144.948 105.915 143.456 105.915ZM151.025 102.962V94.5398H152.384V95.7898H152.509C152.83 94.907 153.619 94.3914 154.759 94.3914C155.017 94.3914 155.306 94.4226 155.439 94.446V95.7664C155.158 95.7195 154.9 95.6882 154.603 95.6882C153.306 95.6882 152.384 96.5085 152.384 97.7429V102.962H151.025ZM160.906 103.11C159.734 103.11 158.797 102.555 158.281 101.618H158.156V102.962H156.797V91.196H158.156V95.8679H158.281C158.742 94.9695 159.75 94.3914 160.906 94.3914C163.047 94.3914 164.438 96.1023 164.438 98.7429V98.7585C164.438 101.384 163.039 103.11 160.906 103.11ZM160.594 101.907C162.133 101.907 163.047 100.719 163.047 98.7585V98.7429C163.047 96.782 162.133 95.5945 160.594 95.5945C159.062 95.5945 158.125 96.7976 158.125 98.7429V98.7585C158.125 100.704 159.062 101.907 160.594 101.907ZM169.139 103.024C167.405 103.024 166.678 102.384 166.678 100.774V95.6648H165.35V94.5398H166.678V92.3601H168.084V94.5398H169.928V95.6648H168.084V100.43C168.084 101.423 168.428 101.821 169.303 101.821C169.545 101.821 169.678 101.813 169.928 101.79V102.946C169.663 102.993 169.405 103.024 169.139 103.024ZM175.536 103.227C173.473 103.227 171.294 101.774 171.294 97.532V97.5164C171.294 93.6726 172.895 91.4226 175.63 91.4226C177.52 91.4226 178.927 92.532 179.309 94.196L179.333 94.2976H177.919L177.887 94.2117C177.544 93.2664 176.755 92.6804 175.614 92.6804C173.567 92.6804 172.731 94.6804 172.645 97.032C172.637 97.1179 172.637 97.2117 172.637 97.2976H172.786C173.2 96.3757 174.262 95.5554 175.786 95.5554C177.903 95.5554 179.481 97.1648 179.481 99.3289V99.3445C179.481 101.594 177.809 103.227 175.536 103.227ZM172.973 99.3289C172.973 100.813 174.091 101.985 175.52 101.985C176.934 101.985 178.067 100.837 178.067 99.3757V99.3601C178.067 97.8601 177.005 96.782 175.544 96.782C174.083 96.782 172.973 97.8523 172.973 99.321V99.3289ZM184.808 103.11C182.409 103.11 180.925 101.454 180.925 98.7585V98.7429C180.925 96.0398 182.409 94.3914 184.808 94.3914C187.206 94.3914 188.691 96.0398 188.691 98.7429V98.7585C188.691 101.454 187.206 103.11 184.808 103.11ZM184.808 101.907C186.402 101.907 187.3 100.743 187.3 98.7585V98.7429C187.3 96.7507 186.402 95.5945 184.808 95.5945C183.214 95.5945 182.316 96.7507 182.316 98.7429V98.7585C182.316 100.743 183.214 101.907 184.808 101.907ZM190.572 102.962V91.6882H194.822C196.939 91.6882 198.439 93.1492 198.439 95.2898V95.3054C198.439 97.446 196.939 98.9382 194.822 98.9382H191.978V102.962H190.572ZM194.462 92.9382H191.978V97.6882H194.462C196.072 97.6882 197.002 96.8054 197.002 95.321V95.3054C197.002 93.821 196.072 92.9382 194.462 92.9382ZM200.172 102.962V94.5398H201.531V95.821H201.656C202.031 94.9148 202.828 94.3914 203.93 94.3914C205.07 94.3914 205.867 94.9929 206.258 95.8679H206.383C206.836 94.9773 207.797 94.3914 208.961 94.3914C210.68 94.3914 211.641 95.3757 211.641 97.1414V102.962H210.281V97.4539C210.281 96.2117 209.711 95.5945 208.523 95.5945C207.352 95.5945 206.578 96.4773 206.578 97.5476V102.962H205.219V97.2429C205.219 96.2429 204.531 95.5945 203.469 95.5945C202.367 95.5945 201.531 96.5554 201.531 97.7429V102.962H200.172ZM213.694 102.962V94.5398H215.053V95.821H215.178C215.553 94.9148 216.35 94.3914 217.452 94.3914C218.592 94.3914 219.389 94.9929 219.78 95.8679H219.905C220.358 94.9773 221.319 94.3914 222.483 94.3914C224.202 94.3914 225.163 95.3757 225.163 97.1414V102.962H223.803V97.4539C223.803 96.2117 223.233 95.5945 222.045 95.5945C220.873 95.5945 220.1 96.4773 220.1 97.5476V102.962H218.741V97.2429C218.741 96.2429 218.053 95.5945 216.991 95.5945C215.889 95.5945 215.053 96.5554 215.053 97.7429V102.962H213.694ZM227.387 102.962V91.6882H231.255C234.598 91.6882 236.575 93.7742 236.575 97.3132V97.3289C236.575 100.876 234.606 102.962 231.255 102.962H227.387ZM228.794 101.696H231.161C233.677 101.696 235.137 100.087 235.137 97.3445V97.3289C235.137 94.5789 233.661 92.9539 231.161 92.9539H228.794V101.696ZM238.613 102.962V91.6882H240.019V102.962H238.613ZM243.041 92.9148C242.525 92.9148 242.103 92.4929 242.103 91.9773C242.103 91.4617 242.525 91.0398 243.041 91.0398C243.556 91.0398 243.978 91.4617 243.978 91.9773C243.978 92.4929 243.556 92.9148 243.041 92.9148ZM242.353 102.962V94.5398H243.712V102.962H242.353Z" fill="#004BAE"/>
<path d="M256.799 97.9519C258.217 97.9519 259.716 98.9509 259.716 101.867V101.878C259.716 104.521 258.615 106.068 256.735 106.068C255.435 106.068 254.468 105.305 254.205 104.161L254.189 104.091H255.161L255.183 104.15C255.419 104.8 255.961 105.203 256.746 105.203C258.153 105.203 258.728 103.828 258.787 102.211C258.792 102.152 258.792 102.088 258.792 102.029H258.69C258.405 102.662 257.675 103.226 256.627 103.226C255.172 103.226 254.087 102.12 254.087 100.632V100.621C254.087 99.0745 255.236 97.9519 256.799 97.9519ZM256.794 102.383C257.798 102.383 258.561 101.647 258.561 100.637V100.632C258.561 99.6116 257.793 98.8059 256.81 98.8059C255.838 98.8059 255.059 99.5955 255.059 100.6V100.611C255.059 101.642 255.79 102.383 256.794 102.383ZM262.036 100.627C261.655 100.627 261.338 100.31 261.338 99.9285C261.338 99.5417 261.655 99.2302 262.036 99.2302C262.423 99.2302 262.734 99.5417 262.734 99.9285C262.734 100.31 262.423 100.627 262.036 100.627ZM262.036 104.784C261.655 104.784 261.338 104.467 261.338 104.086C261.338 103.699 261.655 103.387 262.036 103.387C262.423 103.387 262.734 103.699 262.734 104.086C262.734 104.467 262.423 104.784 262.036 104.784ZM264.587 105.885V105.219L267.208 102.383C268.197 101.314 268.487 100.911 268.487 100.235V100.224C268.487 99.4075 267.934 98.7952 267.021 98.7952C266.091 98.7952 265.474 99.4021 265.474 100.315L265.468 100.326L264.544 100.321L264.534 100.315C264.539 98.9402 265.603 97.9519 267.085 97.9519C268.438 97.9519 269.475 98.8704 269.475 100.122V100.133C269.475 101.019 269.094 101.663 267.692 103.108L265.93 104.929V105.015H269.604V105.885H264.587ZM271.226 105.885V105.219L273.847 102.383C274.835 101.314 275.125 100.911 275.125 100.235V100.224C275.125 99.4075 274.572 98.7952 273.659 98.7952C272.73 98.7952 272.112 99.4021 272.112 100.315L272.107 100.326L271.183 100.321L271.172 100.315C271.178 98.9402 272.241 97.9519 273.724 97.9519C275.077 97.9519 276.114 98.8704 276.114 100.122V100.133C276.114 101.019 275.732 101.663 274.331 103.108L272.569 104.929V105.015H276.243V105.885H271.226Z" fill="#2BA32F"/>
<path d="M308.842 73.2489L308.831 73.25H308.819H295.459H285.93L209.196 73.25L209.194 73.25L152.927 72.7529C148.399 72.7129 144.75 69.0312 144.75 64.5032V49C144.75 44.4437 148.444 40.75 153 40.75H294.913C299.469 40.75 303.163 44.4437 303.163 49V56.8504C303.163 57.1218 303.156 57.392 303.142 57.6614C303.093 60.3354 303.153 62.5341 303.321 64.2601C303.49 65.9937 303.766 67.2266 304.134 67.9842C304.83 69.4163 306.325 70.8313 308.668 72.2172C308.668 72.2174 308.668 72.2175 308.669 72.2177L309.001 72.4105C309.029 72.4269 309.056 72.4455 309.082 72.466L309.082 72.4664C309.101 72.4815 309.147 72.518 309.182 72.5741C309.268 72.7103 309.276 72.8893 309.185 73.0373C309.11 73.1594 308.981 73.2359 308.842 73.2489Z" fill="#E1FFC8" stroke="#B5CADD" stroke-width="0.5"/>
<path fill-rule="evenodd" clip-rule="evenodd" d="M294.088 59.0161L287.568 65.764L287.513 65.8327C287.385 66.0253 287.414 66.2841 287.595 66.4451C287.797 66.6263 288.115 66.615 288.303 66.4199L294.823 59.672L294.879 59.6033C295.007 59.4107 294.977 59.1519 294.797 58.9909C294.594 58.8097 294.277 58.821 294.088 59.0161ZM290.579 59.0144L284.361 65.39L281.779 62.7839L281.711 62.7265C281.519 62.5918 281.248 62.604 281.07 62.7671C280.869 62.9507 280.862 63.2558 281.053 63.4486L284 66.4243L284.071 66.4837C284.271 66.6221 284.554 66.6012 284.729 66.4216L291.311 59.6737L291.367 59.6052C291.496 59.4132 291.468 59.1542 291.288 58.9924C291.086 58.8103 290.768 58.8202 290.579 59.0144Z" fill="#17C700"/>
<path d="M164.238 64.7898C160.207 64.7898 157.652 62.2585 157.652 58.2742V58.2585C157.652 54.3992 160.277 51.7507 164.105 51.7507C167.801 51.7507 170.371 54.1101 170.371 57.4929V57.5085C170.371 60.0476 169.23 61.6648 167.434 61.6648C166.535 61.6648 165.848 61.157 165.723 60.3992L165.715 60.3523H165.59C165.254 61.1492 164.551 61.5945 163.637 61.5945C162.012 61.5945 160.918 60.2585 160.918 58.282V58.2664C160.918 56.3757 162.035 55.0476 163.637 55.0476C164.457 55.0476 165.16 55.4695 165.465 56.1492H165.59V55.196H166.77V59.782C166.77 60.3289 167.09 60.6492 167.652 60.6492C168.637 60.6492 169.27 59.407 169.27 57.4929V57.4773C169.27 54.6648 167.129 52.7351 164.004 52.7351C160.949 52.7351 158.754 55.0632 158.754 58.3054V58.321C158.754 61.6492 160.91 63.7976 164.254 63.7976C165.324 63.7976 166.379 63.6492 166.871 63.4226V64.407C166.168 64.6492 165.223 64.7898 164.238 64.7898ZM163.816 60.4929C164.887 60.4929 165.574 59.6414 165.574 58.3132V58.2976C165.574 56.9695 164.895 56.1257 163.832 56.1257C162.785 56.1257 162.168 56.9382 162.168 58.2976V58.3132C162.168 59.6648 162.793 60.4929 163.816 60.4929ZM172.166 62.9617V51.196H173.526V55.8054H173.651C174.073 54.9148 174.862 54.3914 176.104 54.3914C177.995 54.3914 179.049 55.5085 179.049 57.5085V62.9617H177.69V57.8367C177.69 56.321 177.065 55.5945 175.721 55.5945C174.377 55.5945 173.526 56.5007 173.526 57.9773V62.9617H172.166ZM181.829 52.9148C181.313 52.9148 180.891 52.4929 180.891 51.9773C180.891 51.4617 181.313 51.0398 181.829 51.0398C182.345 51.0398 182.766 51.4617 182.766 51.9773C182.766 52.4929 182.345 52.9148 181.829 52.9148ZM181.141 62.9617V54.5398H182.501V62.9617H181.141ZM184.741 62.9617V51.196H186.101V58.2195H186.226L189.866 54.5398H191.515L187.843 58.0789L191.757 62.9617H190.046L186.89 59.0007L186.101 59.7664V62.9617H184.741ZM195.998 63.1101C193.591 63.1101 192.138 61.4226 192.138 58.782V58.7742C192.138 56.1726 193.623 54.3914 195.912 54.3914C198.201 54.3914 199.591 56.0945 199.591 58.6101V59.1414H193.529C193.568 60.8835 194.529 61.8992 196.029 61.8992C197.17 61.8992 197.873 61.3601 198.099 60.8523L198.13 60.782H199.49L199.474 60.8445C199.185 61.9851 197.982 63.1101 195.998 63.1101ZM195.904 55.6023C194.654 55.6023 193.701 56.4539 193.552 58.0554H198.209C198.068 56.3914 197.146 55.6023 195.904 55.6023ZM201.301 62.9617V54.5398H202.66V55.8054H202.785C203.207 54.9148 203.996 54.3914 205.238 54.3914C207.129 54.3914 208.184 55.5085 208.184 57.5085V62.9617H206.824V57.8367C206.824 56.321 206.199 55.5945 204.855 55.5945C203.512 55.5945 202.66 56.5007 202.66 57.9773V62.9617H201.301ZM210.807 62.9617V55.6648H209.409V54.5398H210.807V53.6023C210.807 51.9226 211.651 51.1179 213.252 51.1179C213.58 51.1179 213.877 51.1414 214.159 51.196V52.282C213.995 52.2507 213.768 52.2429 213.526 52.2429C212.557 52.2429 212.166 52.7195 212.166 53.6414V54.5398H214.08V55.6648H212.166V62.9617H210.807ZM215.72 62.9617V51.196H217.079V62.9617H215.72ZM222.749 63.1101C220.351 63.1101 218.866 61.4539 218.866 58.7585V58.7429C218.866 56.0398 220.351 54.3914 222.749 54.3914C225.148 54.3914 226.632 56.0398 226.632 58.7429V58.7585C226.632 61.4539 225.148 63.1101 222.749 63.1101ZM222.749 61.907C224.343 61.907 225.241 60.7429 225.241 58.7585V58.7429C225.241 56.7507 224.343 55.5945 222.749 55.5945C221.155 55.5945 220.257 56.7507 220.257 58.7429V58.7585C220.257 60.7429 221.155 61.907 222.749 61.907ZM230.654 63.1101C229.052 63.1101 227.841 62.1414 227.841 60.6101V60.5945C227.841 59.0945 228.951 58.2273 230.912 58.1101L233.326 57.9617V57.196C233.326 56.157 232.693 55.5945 231.435 55.5945C230.427 55.5945 229.763 55.9695 229.545 56.6257L229.537 56.6492H228.177L228.185 56.6023C228.404 55.282 229.685 54.3914 231.482 54.3914C233.537 54.3914 234.685 55.446 234.685 57.196V62.9617H233.326V61.7195H233.201C232.67 62.6179 231.787 63.1101 230.654 63.1101ZM229.232 60.5789C229.232 61.4304 229.959 61.9304 230.935 61.9304C232.318 61.9304 233.326 61.0242 233.326 59.821V59.0554L231.076 59.196C229.795 59.2742 229.232 59.7273 229.232 60.5632V60.5789ZM239.762 63.0242C238.027 63.0242 237.301 62.3835 237.301 60.7742V55.6648H235.973V54.5398H237.301V52.3601H238.707V54.5398H240.551V55.6648H238.707V60.4304C238.707 61.4226 239.051 61.821 239.926 61.821C240.168 61.821 240.301 61.8132 240.551 61.7898V62.946C240.285 62.9929 240.027 63.0242 239.762 63.0242Z" fill="#004BAE"/>
<path d="M256.411 57.9519C257.829 57.9519 259.328 58.9509 259.328 61.8674V61.8782C259.328 64.5208 258.227 66.0676 256.347 66.0676C255.047 66.0676 254.08 65.3049 253.817 64.1609L253.801 64.0911H254.773L254.795 64.1501C255.031 64.8 255.574 65.2029 256.358 65.2029C257.765 65.2029 258.34 63.8279 258.399 62.2112C258.404 62.1521 258.404 62.0876 258.404 62.0286H258.302C258.017 62.6624 257.287 63.2263 256.24 63.2263C254.784 63.2263 253.699 62.1199 253.699 60.6321V60.6213C253.699 59.0745 254.848 57.9519 256.411 57.9519ZM256.406 62.3831C257.41 62.3831 258.173 61.6472 258.173 60.6375V60.6321C258.173 59.6116 257.405 58.8059 256.422 58.8059C255.45 58.8059 254.671 59.5955 254.671 60.5999V60.6106C254.671 61.6418 255.402 62.3831 256.406 62.3831ZM261.648 60.6267C261.267 60.6267 260.95 60.3098 260.95 59.9285C260.95 59.5417 261.267 59.2302 261.648 59.2302C262.035 59.2302 262.346 59.5417 262.346 59.9285C262.346 60.3098 262.035 60.6267 261.648 60.6267ZM261.648 64.7839C261.267 64.7839 260.95 64.467 260.95 64.0857C260.95 63.699 261.267 63.3875 261.648 63.3875C262.035 63.3875 262.346 63.699 262.346 64.0857C262.346 64.467 262.035 64.7839 261.648 64.7839ZM264.2 65.885V65.219L266.821 62.3831C267.809 61.3142 268.099 60.9114 268.099 60.2346V60.2239C268.099 59.4075 267.546 58.7952 266.633 58.7952C265.703 58.7952 265.086 59.4021 265.086 60.3152L265.08 60.3259L264.157 60.3206L264.146 60.3152C264.151 58.9402 265.215 57.9519 266.697 57.9519C268.051 57.9519 269.087 58.8704 269.087 60.1218V60.1326C269.087 61.0188 268.706 61.6633 267.304 63.1082L265.542 64.929V65.0149H269.216V65.885H264.2ZM273.432 66.0676C271.719 66.0676 270.699 64.5046 270.699 62.0125V62.0017C270.699 59.5095 271.719 57.9519 273.432 57.9519C275.146 57.9519 276.177 59.5095 276.177 62.0017V62.0125C276.177 64.5046 275.146 66.0676 273.432 66.0676ZM273.432 65.2244C274.544 65.2244 275.205 63.989 275.205 62.0125V62.0017C275.205 60.0251 274.544 58.8005 273.432 58.8005C272.321 58.8005 271.671 60.0251 271.671 62.0017V62.0125C271.671 63.989 272.321 65.2244 273.432 65.2244Z" fill="#2BA32F"/>
</svg>
